<?xml version="1.0" encoding="UTF-8" standalone="no"?>
<svg
   xmlns:dc="http://purl.org/dc/elements/1.1/"
   xmlns:cc="http://creativecommons.org/ns#"
   xmlns:rdf="http://www.w3.org/1999/02/22-rdf-syntax-ns#"
   xmlns:svg="http://www.w3.org/2000/svg"
   xmlns="http://www.w3.org/2000/svg"
   version="1.1"
   id="svg2"
   viewBox="0 0 200 49.999995"
   height="50"
   width="200">
  <defs
     id="defs4">
    <clipPath
       clipPathUnits="userSpaceOnUse"
       id="clipPath3371">
      <path
         d="m 0,0 5947,0 0,5691 L 0,5691 0,0 Z"
         id="path3373" />
    </clipPath>
    <clipPath
       clipPathUnits="userSpaceOnUse"
       id="clipPath3377">
      <path
         d="m 0,0 5947,0 0,5691 L 0,5691 0,0 Z"
         id="path3379" />
    </clipPath>
  </defs>
  <metadata
     id="metadata7">
    <rdf:RDF>
      <cc:Work
         rdf:about="">
        <dc:format>image/svg+xml</dc:format>
        <dc:type
           rdf:resource="http://purl.org/dc/dcmitype/StillImage" />
        <dc:title></dc:title>
      </cc:Work>
    </rdf:RDF>
  </metadata>
  <g
     transform="translate(0,-1002.3623)"
     id="layer1">
    <path
       d="m 106.97673,1029.3967 c -1.3125,1.9862 -4.09,0.4475 -6.54125,-1.1788 1.63,2.4475 3.17125,5.2263 1.17625,6.54 -1.08,0.715 -1.55,1.4113 -1.613753,2.0525 -0.0663,-0.6412 -0.5325,-1.3375 -1.6125,-2.055 -1.99125,-1.3112 -0.4525,-4.0887 1.17375,-6.5362 -2.4475,1.6262 -5.22625,3.1687 -6.53875,1.1687 -0.715,-1.075 -1.415,-1.545 -2.05375,-1.6112 0.63875,-0.067 1.33875,-0.5313 2.05375,-1.6125 1.3125,-1.99 4.09125,-0.4488 6.53875,1.175 -1.62625,-2.4525 -3.165,-5.2263 -1.17375,-6.5363 1.08,-0.7175 1.54625,-1.4137 1.6125,-2.0575 0.0687,0.6438 0.530003,1.34 1.613753,2.0575 1.995,1.31 0.45375,4.0838 -1.1675,6.5313 2.4425,-1.6225 5.22,-3.16 6.53625,-1.17 0.71625,1.0787 1.41,1.545 2.05,1.6125 -0.64,0.07 -1.33375,0.5362 -2.05375,1.62"
       style="fill:none;fill-opacity:1;fill-rule:nonzero;stroke:none;stroke-width:0.2;stroke-miterlimit:4;stroke-dasharray:none;stroke-opacity:1"
       id="path22281" />
    <path
       d="m 196.50173,1029.8154 c 1.44125,-0.1462 2.775,-2.03 2.77875,-2.0362 -0.009,0 -1.3375,-1.8875 -2.77875,-2.0388 -1.54,-0.1462 -2.6875,1.5438 -5.78625,2.0388 3.09875,0.495 4.24625,2.1875 5.78625,2.0362"
       style="fill:none;fill-opacity:1;fill-rule:nonzero;stroke:none;stroke-width:0.2;stroke-miterlimit:4;stroke-dasharray:none;stroke-opacity:1"
       id="path22283" />
    <path
       d="m 183.95673,1027.7792 c 4.26,-0.425 7.94,-3.2788 9.955,-5.9875 -0.42875,1.5075 -2.715,5.0775 -4.595,5.9875 1.88,0.91 4.16625,4.4825 4.595,5.985 -2.02,-2.7113 -5.69875,-5.5575 -9.955,-5.985"
       style="fill:none;fill-opacity:1;fill-rule:nonzero;stroke:none;stroke-width:0.2;stroke-miterlimit:4;stroke-dasharray:none;stroke-opacity:1"
       id="path22285" />
    <path
       d="m 184.39673,1027.7767 c 0,-1.2125 -0.5025,-1.6588 -1.00375,-1.6588 -0.495,0 -1.00375,0.4463 -1.00375,1.6588 0,1.22 0.50875,1.665 1.00375,1.665 0.50125,0 1.00375,-0.445 1.00375,-1.665"
       style="fill:none;fill-opacity:1;fill-rule:nonzero;stroke:none;stroke-width:0.2;stroke-miterlimit:4;stroke-dasharray:none;stroke-opacity:1"
       id="path22287" />
    <path
       d="m 178.06673,1027.7767 c 0,-1.2125 -0.50375,-1.6588 -1.00375,-1.6588 -0.5,0 -1.00375,0.4463 -1.00375,1.6588 0,1.22 0.50375,1.665 1.00375,1.665 0.5,0 1.00375,-0.445 1.00375,-1.665"
       style="fill:none;fill-opacity:1;fill-rule:nonzero;stroke:none;stroke-width:0.2;stroke-miterlimit:4;stroke-dasharray:none;stroke-opacity:1"
       id="path22289" />
    <path
       d="m 181.34298,1027.7767 c 0,-1.7738 -0.4775,-2.4213 -1.11625,-2.4213 -0.64,0 -1.11,0.6475 -1.11,2.4213 0,1.775 0.47,2.4262 1.11,2.4262 0.63875,0 1.11625,-0.6512 1.11625,-2.4262"
       style="fill:none;fill-opacity:1;fill-rule:nonzero;stroke:none;stroke-width:0.2;stroke-miterlimit:4;stroke-dasharray:none;stroke-opacity:1"
       id="path22291" />
    <path
       d="m 109.62298,1025.7354 c 0.49625,-0.45 1.1475,-0.7387 1.86875,-0.7387 0.95125,0 1.6,0.5175 2.09875,0.7837 1.58,0.8275 3.07,1.4839 19.07625,1.48 l 8.32188,0 7.53918,0 6.50019,0 c 10.285,0 16.09875,-0.2112 18.13125,-1.7637 0.86375,1.23 2.9,2.28 2.9,2.28 0,0 -2.03625,1.0525 -2.9,2.285"
       style="fill:none;fill-opacity:1;fill-rule:nonzero;stroke:none;stroke-width:0.2;stroke-miterlimit:4;stroke-dasharray:none;stroke-opacity:1"
       id="path22295" />
    <path
       d="m 173.15923,1030.0617 c -2.0325,-1.5538 -7.84625,-1.7663 -18.13125,-1.7663 l -6.50019,0 -7.53918,10e-5 -8.32188,0 c -16.00625,0 -17.49625,0.6525 -19.07625,1.4825 -0.49875,0.2625 -1.1475,0.7787 -2.09875,0.7787 -0.72125,0 -1.3725,-0.2837 -1.86875,-0.7337 l 2.045,-2.0463 -2.045,-2.0412"
       style="fill:none;fill-opacity:1;fill-rule:nonzero;stroke:none;stroke-width:0.2;stroke-miterlimit:4;stroke-dasharray:none;stroke-opacity:1"
       id="path22297" />
    <path
       d="m 179.11673,1027.7767 c 0,-0.2875 -0.23625,-0.525 -0.525,-0.525 -0.2925,0 -0.525,0.2375 -0.525,0.525 0,0.2912 0.2325,0.5275 0.525,0.5275 0.28875,0 0.525,-0.2363 0.525,-0.5275"
       style="fill:none;fill-opacity:1;fill-rule:nonzero;stroke:none;stroke-width:0.2;stroke-miterlimit:4;stroke-dasharray:none;stroke-opacity:1"
       id="path22299" />
    <path
       d="m 182.38923,1027.7767 c 0,-0.2875 -0.2325,-0.525 -0.525,-0.525 -0.2875,0 -0.52125,0.2375 -0.52125,0.525 0,0.2912 0.23375,0.5275 0.52125,0.5275 0.2925,0 0.525,-0.2363 0.525,-0.5275"
       style="fill:none;fill-opacity:1;fill-rule:nonzero;stroke:none;stroke-width:0.2;stroke-miterlimit:4;stroke-dasharray:none;stroke-opacity:1"
       id="path22301" />
    <path
       d="m 3.4942267,1029.8154 c -1.43875,-0.1462 -2.773753,-2.03 -2.777503,-2.0362 0.009,0 1.338753,-1.8875 2.777503,-2.0388 1.5375,-0.1462 2.69,1.5438 5.78875,2.0388 -3.09875,0.495 -4.25125,2.1875 -5.78875,2.0362"
       style="fill:none;fill-opacity:1;fill-rule:nonzero;stroke:none;stroke-width:0.2;stroke-miterlimit:4;stroke-dasharray:none;stroke-opacity:1"
       id="path22303" />
    <path
       d="m 16.036727,1027.7792 c -4.26,-0.425 -7.9350003,-3.2788 -9.9512503,-5.9875 0.4275,1.5075 2.715,5.0775 4.5950003,5.9875 -1.8800003,0.91 -4.1675003,4.4825 -4.5950003,5.985 2.02125,-2.7113 5.7000003,-5.5575 9.9512503,-5.985"
       style="fill:none;fill-opacity:1;fill-rule:nonzero;stroke:none;stroke-width:0.2;stroke-miterlimit:4;stroke-dasharray:none;stroke-opacity:1"
       id="path22305" />
    <path
       d="m 15.600477,1027.7767 c 0,-1.2125 0.50375,-1.6588 1.0025,-1.6588 0.50125,0 1.00375,0.4463 1.00375,1.6588 0,1.22 -0.5025,1.665 -1.00375,1.665 -0.49875,0 -1.0025,-0.445 -1.0025,-1.665"
       style="fill:none;fill-opacity:1;fill-rule:nonzero;stroke:none;stroke-width:0.2;stroke-miterlimit:4;stroke-dasharray:none;stroke-opacity:1"
       id="path22307" />
    <path
       d="m 21.930477,1027.7767 c 0,-1.2125 0.5075,-1.6588 1.00375,-1.6588 0.49875,0 1.00375,0.4463 1.00375,1.6588 0,1.22 -0.505,1.665 -1.00375,1.665 -0.49625,0 -1.00375,-0.445 -1.00375,-1.665"
       style="fill:none;fill-opacity:1;fill-rule:nonzero;stroke:none;stroke-width:0.2;stroke-miterlimit:4;stroke-dasharray:none;stroke-opacity:1"
       id="path22309" />
    <path
       d="m 18.657977,1027.7767 c 0,-1.7738 0.47375,-2.4213 1.11375,-2.4213 0.63875,0 1.1125,0.6475 1.1125,2.4213 0,1.775 -0.47375,2.4262 -1.1125,2.4262 -0.64,0 -1.11375,-0.6512 -1.11375,-2.4262"
       style="fill:none;fill-opacity:1;fill-rule:nonzero;stroke:none;stroke-width:0.2;stroke-miterlimit:4;stroke-dasharray:none;stroke-opacity:1"
       id="path22311" />
    <path
       d="m 90.369227,1025.7354 c -0.49,-0.45 -1.1425,-0.7387 -1.8625,-0.7387 -0.9525,0 -1.6,0.5175 -2.1,0.7837 -1.57875,0.8275 -3.07,1.4839 -19.075,1.48 l -8.32325,0 -7.543,0 -6.5,0 c -10.28125,0 -16.09875,-0.2113 -18.13125,-1.7638 -0.85875,1.23 -2.89625,2.28 -2.89625,2.28 0,0 2.0375,1.0525 2.89625,2.285"
       style="fill:none;fill-opacity:1;fill-rule:nonzero;stroke:none;stroke-width:0.2;stroke-miterlimit:4;stroke-dasharray:none;stroke-opacity:1"
       id="path22315" />
    <path
       d="m 26.834227,1030.0617 c 2.0325,-1.5538 7.85,-1.7663 18.13125,-1.7663 l 6.5,0 7.543,0 8.32325,0 c 16.005,0 17.49625,0.6525 19.075,1.4825 0.5,0.2625 1.1475,0.7788 2.1,0.7788 0.72,0 1.3725,-0.2838 1.8625,-0.7338 l -2.04125,-2.0462 2.04125,-2.0413"
       style="fill:none;fill-opacity:1;fill-rule:nonzero;stroke:none;stroke-width:0.2;stroke-miterlimit:4;stroke-dasharray:none;stroke-opacity:1"
       id="path22317" />
    <path
       d="m 17.606727,1027.7767 c 0,-0.2875 0.23375,-0.525 0.52625,-0.525 0.2875,0 0.525,0.2375 0.525,0.525 0,0.2912 -0.2375,0.5275 -0.525,0.5275 -0.2925,0 -0.52625,-0.2363 -0.52625,-0.5275"
       style="fill:none;fill-opacity:1;fill-rule:nonzero;stroke:none;stroke-width:0.2;stroke-miterlimit:4;stroke-dasharray:none;stroke-opacity:1"
       id="path22321" />
    <path
       id="path33163"
       d="m 3.0514467,1029.6665 c -0.8931,-0.3339 -2.259863,-1.6001 -2.138833,-1.9815 0.0997,-0.3141 1.280783,-1.3902 1.814943,-1.6536 0.81484,-0.4018 1.39384,-0.3002 3.08572,0.5414 0.82694,0.4113 1.81916,0.8381 2.20492,0.9484 0.38576,0.1103 0.70138,0.2259 0.70138,0.2567 0,0.031 -0.31562,0.1467 -0.70138,0.2573 -0.38576,0.1106 -1.35803,0.5275 -2.16059,0.9265 -1.53358,0.7623 -2.20274,0.9304 -2.80616,0.7048 z"
       style="opacity:1;fill:none;fill-opacity:1;stroke:none;stroke-width:0.2;stroke-miterlimit:4;stroke-dasharray:none;stroke-opacity:1" />
    <path
       id="path33165"
       d="m 6.3642967,1033.1768 c 0.004,-0.1596 0.96191,-1.8124 1.43802,-2.4805 0.68698,-0.964 2.04406,-2.3758 2.5410403,-2.6434 0.21833,-0.1176 0.39697,-0.2413 0.39697,-0.275 0,-0.034 -0.17864,-0.1574 -0.39697,-0.275 -0.4969803,-0.2676 -1.8540603,-1.6794 -2.5410403,-2.6434 -0.46651,-0.6546 -1.43401,-2.3194 -1.43802,-2.4743 -8.7e-4,-0.034 0.56667,0.498 1.26119,1.1813 0.69453,0.6833 1.69645,1.5307 2.2265,1.8831 1.3305203,0.8847 3.1041303,1.7083 4.3384503,2.0148 0.57025,0.1416 1.03747,0.2888 1.03828,0.3272 8.1e-4,0.038 -0.19301,0.101 -0.43069,0.139 -1.34288,0.2147 -3.9148,1.3944 -5.3485403,2.4533 -0.43214,0.3192 -1.30346,1.0933 -1.93624,1.7202 -0.63279,0.627 -1.14982,1.1097 -1.14895,1.0727 z"
       style="opacity:1;fill:none;fill-opacity:1;stroke:none;stroke-width:0.2;stroke-miterlimit:4;stroke-dasharray:none;stroke-opacity:1" />
    <path
       id="path33178"
       d="m 3.0514467,1029.6665 c -0.8931,-0.3339 -2.259863,-1.6001 -2.138833,-1.9815 0.0997,-0.3141 1.280783,-1.3902 1.814943,-1.6536 0.81484,-0.4018 1.39384,-0.3002 3.08572,0.5414 0.82694,0.4113 1.81916,0.8381 2.20492,0.9484 0.38576,0.1103 0.70138,0.2259 0.70138,0.2567 0,0.031 -0.31562,0.1467 -0.70138,0.2573 -0.38576,0.1106 -1.35803,0.5275 -2.16059,0.9265 -1.53358,0.7623 -2.20274,0.9304 -2.80616,0.7048 z"
       style="opacity:1;fill:none;fill-opacity:1;stroke:none;stroke-width:0.2;stroke-miterlimit:4;stroke-dasharray:none;stroke-opacity:1" />
    <path
       d="m 21.979497,1027.7569 c 0,-0.2875 -0.23625,-0.525 -0.525,-0.525 -0.2925,0 -0.525,0.2375 -0.525,0.525 0,0.2913 0.2325,0.5275 0.525,0.5275 0.28875,0 0.525,-0.2362 0.525,-0.5275"
       style="fill:none;fill-opacity:1;fill-rule:nonzero;stroke:none;stroke-width:0.2;stroke-miterlimit:4;stroke-dasharray:none;stroke-opacity:1"
       id="path22299-1" />
    <path
       id="path34081"
       d="m 3.2742767,1029.5945 c -0.73648,-0.1806 -2.218983,-1.4276 -2.219963,-1.8674 -2.6e-4,-0.1157 0.701233,-0.8307 1.165643,-1.1881 0.72596,-0.5586 1.23955,-0.6967 1.92552,-0.5177 0.34537,0.09 0.69594,0.2411 2.35866,1.0157 0.3853,0.1796 0.96333,0.4189 1.2845,0.5319 l 0.58395,0.2055 -0.51791,0.1809 c -0.28485,0.1 -0.87553,0.3463 -1.31261,0.5486 -1.74814,0.809 -2.03983,0.9326 -2.4439,1.036 -0.44475,0.1137 -0.55346,0.1209 -0.82389,0.055 z"
       style="opacity:1;fill:#000000;fill-opacity:0.30128204;stroke:none;stroke-width:0.2;stroke-linecap:round;stroke-miterlimit:4;stroke-dasharray:none;stroke-dashoffset:0;stroke-opacity:1" />
    <path
       id="path34083"
       d="m 6.8626867,1032.4915 c 0.0702,-0.1882 0.75348,-1.294 1.08903,-1.7624 0.68861,-0.9613 1.81231,-2.1345 2.4201703,-2.5267 0.17693,-0.1142 0.37703,-0.256 0.44469,-0.3152 l 0.123,-0.1077 -0.15111,-0.1257 c -0.0831,-0.069 -0.26492,-0.1963 -0.40403,-0.2827 -0.5721903,-0.3554 -2.0126803,-1.9014 -2.6290903,-2.8217 -0.33832,-0.5051 -0.91194,-1.4567 -0.91194,-1.5128 0,-0.017 0.32248,0.2726 0.71663,0.6439 1.01343,0.9545 1.88925,1.6693 2.5528103,2.0834 1.26929,0.7923 2.86706,1.5068 4.10532,1.836 0.33101,0.088 0.59498,0.1668 0.58661,0.1752 -0.008,0.01 -0.2539,0.077 -0.54563,0.1532 -1.27875,0.3326 -3.15115,1.1962 -4.4340503,2.0452 -0.61906,0.4097 -1.29093,0.9766 -2.23636,1.8872 -0.42121,0.4056 -0.74793,0.6895 -0.72605,0.6308 z"
       style="opacity:1;fill:#000000;fill-opacity:0.30128204;stroke:none;stroke-width:0.2;stroke-linecap:round;stroke-miterlimit:4;stroke-dasharray:none;stroke-dashoffset:0;stroke-opacity:1" />
    <path
       id="path34085"
       d="m 16.240207,1029.1993 c -0.23101,-0.1449 -0.44642,-0.5959 -0.47058,-0.9852 -0.0168,-0.2711 -0.0119,-0.2817 0.1405,-0.2991 0.12595,-0.014 0.15442,-0.043 0.14052,-0.1406 -0.0125,-0.088 -0.0631,-0.1276 -0.17774,-0.1407 -0.15645,-0.018 -0.15939,-0.024 -0.12232,-0.2717 0.12911,-0.8609 0.58248,-1.2769 1.12845,-1.0354 0.19353,0.086 0.26467,0.1632 0.39753,0.4338 0.15099,0.3075 0.16182,0.3747 0.16182,1.004 0,0.7627 -0.0856,1.081 -0.36207,1.3459 -0.22206,0.2127 -0.57842,0.2507 -0.83611,0.089 z"
       style="opacity:1;fill:#000000;fill-opacity:0.30128204;stroke:none;stroke-width:0.2;stroke-linecap:round;stroke-miterlimit:4;stroke-dasharray:none;stroke-dashoffset:0;stroke-opacity:1" />
    <path
       id="path34087"
       d="m 17.895627,1028.0695 c -0.28467,-0.2239 -0.12273,-0.6704 0.24316,-0.6704 0.19826,0 0.39563,0.1888 0.39563,0.3785 0,0.1594 -0.23373,0.4084 -0.38331,0.4084 -0.0591,0 -0.17403,-0.052 -0.25548,-0.1165 z"
       style="opacity:1;fill:#000000;fill-opacity:0.30128204;stroke:none;stroke-width:0.2;stroke-linecap:round;stroke-miterlimit:4;stroke-dasharray:none;stroke-dashoffset:0;stroke-opacity:1" />
    <path
       id="path34089"
       d="m 19.491057,1030.0009 c -0.39316,-0.2022 -0.59449,-0.6942 -0.67433,-1.6482 -0.0519,-0.6203 0.002,-1.5583 0.11389,-1.9783 0.19947,-0.7493 0.71456,-1.0775 1.2104,-0.771 0.23092,0.1427 0.44352,0.5674 0.53309,1.065 0.0971,0.5391 0.0808,1.8578 -0.0288,2.3326 -0.19911,0.8627 -0.65424,1.2569 -1.15426,0.9999 z"
       style="opacity:1;fill:#000000;fill-opacity:0.30128204;stroke:none;stroke-width:0.2;stroke-linecap:round;stroke-miterlimit:4;stroke-dasharray:none;stroke-dashoffset:0;stroke-opacity:1" />
    <path
       id="path34091"
       d="m 21.151227,1028.0049 c -0.12586,-0.1797 -0.10795,-0.3656 0.0505,-0.524 0.15951,-0.1595 0.29176,-0.1738 0.46781,-0.05 0.1694,0.1186 0.18039,0.5533 0.0162,0.6412 -0.18837,0.1008 -0.43904,0.069 -0.53447,-0.067 z"
       style="opacity:1;fill:#000000;fill-opacity:0.30128204;stroke:none;stroke-width:0.2;stroke-linecap:round;stroke-miterlimit:4;stroke-dasharray:none;stroke-dashoffset:0;stroke-opacity:1" />
    <path
       id="path34093"
       d="m 22.661037,1029.2557 c -0.1869,-0.076 -0.40736,-0.3775 -0.49762,-0.6815 -0.11426,-0.3847 -0.11009,-1.2357 0.008,-1.6192 0.21331,-0.693 0.83362,-0.9223 1.26812,-0.4688 0.24412,0.2548 0.47555,1.1272 0.32389,1.221 -0.0469,0.029 -0.0466,0.059 0.001,0.1168 0.0911,0.1098 0.017,0.6049 -0.14447,0.9647 -0.19569,0.4361 -0.57668,0.6216 -0.95892,0.467 z"
       style="opacity:1;fill:#000000;fill-opacity:0.30128204;stroke:none;stroke-width:0.2;stroke-linecap:round;stroke-miterlimit:4;stroke-dasharray:none;stroke-dashoffset:0;stroke-opacity:1" />
    <path
       id="path34095"
       d="m 87.893617,1030.3455 c -0.32343,-0.085 -0.54363,-0.1884 -1.51758,-0.7116 -0.3246,-0.1744 -0.79252,-0.3829 -1.03983,-0.4633 -1.37883,-0.4485 -3.50934,-0.6835 -7.98136,-0.8805 -2.06495,-0.091 -36.35367,-0.1355 -39.54149,-0.051 -5.92279,0.1563 -8.7425,0.5204 -10.40953,1.3441 l -0.54523,0.2695 -0.41028,-0.416 c -0.46512,-0.4716 -1.0949,-0.9607 -1.77057,-1.3751 l -0.46096,-0.2828 0.50217,-0.3161 c 0.79525,-0.5007 1.17058,-0.7885 1.68239,-1.2897 l 0.4775,-0.4677 0.42269,0.2222 c 1.5068,0.7918 3.98181,1.1515 9.44389,1.3722 2.52942,0.1023 36.30639,0.1026 39.37287,4e-4 5.63021,-0.1876 8.01304,-0.4436 9.51033,-1.0221 0.24105,-0.093 0.7165,-0.3252 1.05655,-0.5158 0.85826,-0.4811 1.23702,-0.6084 1.81444,-0.6099 0.53941,0 1.00219,0.1314 1.42649,0.4091 l 0.27241,0.1784 -1.02541,1.0265 -1.0254,1.0265 1.01115,1.0146 c 1.13746,1.1413 1.09329,1.029 0.52027,1.323 -0.57493,0.295 -1.19781,0.3701 -1.78551,0.2154 l 0,0 z"
       style="opacity:1;fill:#000000;fill-opacity:0.30128204;stroke:none;stroke-width:0.2;stroke-linecap:round;stroke-miterlimit:4;stroke-dasharray:none;stroke-dashoffset:0;stroke-opacity:1" />
    <path
       id="path34097"
       d="m 99.836657,1035.9844 c -0.22925,-0.3851 -0.69228,-0.8457 -1.26781,-1.2611 -0.77412,-0.5588 -0.97801,-0.9335 -0.97282,-1.7878 0.003,-0.4949 0.0284,-0.636 0.21216,-1.1804 0.24192,-0.7165 0.78552,-1.7859 1.40761,-2.7692 0.40156,-0.6347 0.48225,-0.8561 0.31201,-0.8561 -0.0332,0 -0.33118,0.1725 -0.66219,0.3834 -2.16473,1.379 -3.67789,1.9034 -4.65512,1.6132 -0.44925,-0.1334 -0.77716,-0.3899 -1.14008,-0.8918 -0.43644,-0.6036 -0.81871,-0.9952 -1.23216,-1.2625 l -0.33757,-0.2181 0.23397,-0.1139 c 0.3447,-0.1677 0.77365,-0.578 1.21212,-1.1595 0.68249,-0.9051 0.92684,-1.0576 1.75197,-1.0937 0.4306,-0.019 0.62706,8e-4 0.98362,0.098 0.85866,0.2349 2.02268,0.8093 3.2829,1.6202 0.39474,0.254 0.55088,0.3272 0.60397,0.2831 0.0394,-0.033 0.0716,-0.078 0.0716,-0.1011 0,-0.023 -0.21206,-0.3803 -0.47123,-0.7941 -1.06265,-1.6966 -1.60843,-3.0362 -1.60843,-3.9478 0,-0.3593 0.19307,-0.9295 0.39897,-1.1784 0.0976,-0.118 0.40932,-0.388 0.69269,-0.6001 0.58828,-0.4402 0.95511,-0.8119 1.18008,-1.1958 l 0.15612,-0.2664 0.212483,0.3234 c 0.25699,0.3912 0.66928,0.7925 1.24929,1.2162 0.48029,0.3507 0.65627,0.553 0.8396,0.9652 0.17836,0.4009 0.16577,1.1135 -0.0317,1.7955 -0.18821,0.6499 -0.85266,1.9876 -1.45722,2.9336 -0.43247,0.6768 -0.46583,0.7488 -0.38167,0.8238 0.0823,0.073 0.13764,0.052 0.51378,-0.1942 1.26011,-0.8265 2.53133,-1.4638 3.34461,-1.6768 0.48266,-0.1264 1.21093,-0.1535 1.55535,-0.058 0.36927,0.1025 0.73254,0.4001 1.12983,0.9256 0.49486,0.6544 0.78152,0.9491 1.17391,1.2067 l 0.31837,0.209 -0.35645,0.2344 c -0.35074,0.2306 -0.76514,0.6634 -1.16465,1.2164 -0.46733,0.6469 -0.91357,0.9243 -1.56142,0.9706 -0.9482,0.068 -2.24858,-0.4387 -4.09586,-1.5955 -0.41379,-0.2591 -0.77112,-0.4711 -0.79407,-0.4711 -0.0229,0 -0.0675,0.032 -0.099,0.07 -0.0416,0.051 0.0876,0.3013 0.47127,0.9133 1.39277,2.2217 1.83207,3.6935 1.40646,4.7121 -0.11885,0.2845 -0.43747,0.6119 -1.02568,1.054 -0.56323,0.4233 -0.8459,0.7177 -1.08179,1.1265 l -0.15012,0.2602 -0.167713,-0.2817 z"
       style="opacity:1;fill:#000000;fill-opacity:0.30128204;stroke:none;stroke-width:0.2;stroke-linecap:round;stroke-miterlimit:4;stroke-dasharray:none;stroke-dashoffset:0;stroke-opacity:1" />
    <path
       id="path34099"
       d="m 110.826,1030.3323 c -0.36051,-0.094 -0.82008,-0.325 -0.9436,-0.4738 -0.0504,-0.061 0.14444,-0.2841 0.94596,-1.0847 l 1.00939,-1.0082 -1.01638,-1.0175 -1.01639,-1.0175 0.27617,-0.1772 c 0.43644,-0.2801 0.86294,-0.4026 1.4018,-0.4026 0.54321,0 0.92946,0.1106 1.48221,0.4243 1.44106,0.8178 2.2426,1.0675 4.21221,1.3121 3.45205,0.4289 7.69345,0.5095 26.81065,0.5095 15.88053,-10e-5 19.59224,-0.046 22.79186,-0.2814 2.98057,-0.2193 5.14751,-0.678 6.119,-1.2952 l 0.21729,-0.138 0.40099,0.4147 c 0.44813,0.4634 1.06859,0.946 1.76608,1.3738 0.52855,0.3242 0.53275,0.2859 -0.0723,0.6588 -0.6305,0.3886 -1.20433,0.8372 -1.67202,1.3071 l -0.43547,0.4375 -0.21714,-0.1437 c -0.29634,-0.1961 -1.0512,-0.4861 -1.72517,-0.6628 -1.4293,-0.3747 -3.28592,-0.5865 -6.82622,-0.7788 -1.64431,-0.089 -35.39084,-0.1323 -39.09183,-0.05 -6.07511,0.1354 -8.87512,0.3773 -10.49518,0.9068 -0.28483,0.093 -0.92535,0.3823 -1.42338,0.6428 -1.2583,0.6581 -1.69639,0.7535 -2.49849,0.5438 z"
       style="opacity:1;fill:#000000;fill-opacity:0.30128204;stroke:none;stroke-width:0.2;stroke-linecap:round;stroke-miterlimit:4;stroke-dasharray:none;stroke-dashoffset:0;stroke-opacity:1" />
    <path
       id="path34101"
       d="m 176.72259,1029.2033 c -0.24716,-0.1507 -0.41605,-0.4548 -0.48895,-0.8805 -0.0484,-0.2823 -0.0471,-0.3922 0.006,-0.4767 0.0503,-0.081 0.0513,-0.1098 0.004,-0.1098 -0.10976,0 -0.007,-0.6712 0.1531,-0.9986 0.38653,-0.791 1.2777,-0.5591 1.48021,0.3852 0.13423,0.6259 0.0277,1.5013 -0.22612,1.8577 -0.23028,0.3234 -0.61226,0.4151 -0.92779,0.2227 z"
       style="opacity:1;fill:#000000;fill-opacity:0.30128204;stroke:none;stroke-width:0.2;stroke-linecap:round;stroke-miterlimit:4;stroke-dasharray:none;stroke-dashoffset:0;stroke-opacity:1" />
    <path
       id="path34103"
       d="m 178.41469,1028.1188 c -0.15657,-0.089 -0.19488,-0.1591 -0.19587,-0.3597 -0.002,-0.3591 0.44514,-0.4972 0.67272,-0.2079 0.13998,0.178 0.11534,0.3847 -0.0639,0.5364 -0.1335,0.113 -0.25284,0.122 -0.41292,0.031 z"
       style="opacity:1;fill:#000000;fill-opacity:0.30128204;stroke:none;stroke-width:0.2;stroke-linecap:round;stroke-miterlimit:4;stroke-dasharray:none;stroke-dashoffset:0;stroke-opacity:1" />
    <path
       id="path34105"
       d="m 179.98569,1030.0202 c -0.0943,-0.042 -0.23909,-0.1573 -0.3218,-0.2556 -0.51629,-0.6136 -0.57282,-2.8941 -0.095,-3.8308 0.22406,-0.4392 0.7285,-0.5805 1.06409,-0.2981 0.39664,0.3337 0.56196,0.96 0.56196,2.1287 0,1.4412 -0.28813,2.2048 -0.86925,2.3039 -0.0927,0.016 -0.24576,-0.01 -0.34003,-0.048 z"
       style="opacity:1;fill:#000000;fill-opacity:0.30128204;stroke:none;stroke-width:0.2;stroke-linecap:round;stroke-miterlimit:4;stroke-dasharray:none;stroke-dashoffset:0;stroke-opacity:1" />
    <path
       id="path34107"
       d="m 181.62605,1028.0695 c -0.28466,-0.2239 -0.12272,-0.6704 0.24316,-0.6704 0.19826,0 0.39564,0.1888 0.39564,0.3785 0,0.1594 -0.23373,0.4084 -0.38331,0.4084 -0.0591,0 -0.17403,-0.052 -0.25549,-0.1165 z"
       style="opacity:1;fill:#000000;fill-opacity:0.30128204;stroke:none;stroke-width:0.2;stroke-linecap:round;stroke-miterlimit:4;stroke-dasharray:none;stroke-dashoffset:0;stroke-opacity:1" />
    <path
       id="path34109"
       d="m 182.99739,1029.1625 c -0.37371,-0.3144 -0.54421,-0.9935 -0.44628,-1.7775 0.0896,-0.717 0.39131,-1.1254 0.83161,-1.1254 0.47628,0 0.75586,0.3715 0.86823,1.1536 0.0291,0.2025 0.0239,0.2107 -0.13481,0.2107 -0.13862,0 -0.16508,0.023 -0.16508,0.1405 0,0.096 0.0311,0.1408 0.0984,0.1414 0.19738,0 0.22909,0.07 0.17927,0.3835 -0.13507,0.8513 -0.74409,1.2832 -1.2313,0.8732 z"
       style="opacity:1;fill:#000000;fill-opacity:0.30128204;stroke:none;stroke-width:0.2;stroke-linecap:round;stroke-miterlimit:4;stroke-dasharray:none;stroke-dashoffset:0;stroke-opacity:1" />
    <path
       id="path34111"
       d="m 192.58345,1032.0546 c -2.07644,-2.0859 -4.63997,-3.5766 -7.14101,-4.1525 l -0.56017,-0.129 0.38472,-0.078 c 1.06493,-0.2153 2.51791,-0.7672 3.60306,-1.3687 1.39563,-0.7737 2.4655,-1.5876 3.6947,-2.8109 0.45598,-0.4538 0.82905,-0.8089 0.82905,-0.789 0,0.078 -0.64363,1.1729 -1.01014,1.7191 -0.99499,1.483 -2.144,2.6848 -3.0305,3.1695 l -0.29191,0.1597 0.37549,0.2195 c 0.93198,0.5449 2.06489,1.7591 3.03996,3.2579 0.41797,0.6425 0.88917,1.4774 0.85329,1.5118 -0.0113,0.011 -0.34722,-0.3085 -0.74654,-0.7097 z"
       style="opacity:1;fill:#000000;fill-opacity:0.30128204;stroke:none;stroke-width:0.2;stroke-linecap:round;stroke-miterlimit:4;stroke-dasharray:none;stroke-dashoffset:0;stroke-opacity:1" />
    <path
       id="path34113"
       d="m 195.75449,1029.615 c -0.17003,-0.045 -0.85294,-0.3562 -1.51759,-0.6922 -1.17656,-0.5948 -1.81461,-0.8635 -2.49802,-1.0523 l -0.33407,-0.092 0.47287,-0.1365 c 0.70896,-0.2047 1.09052,-0.3679 2.41543,-1.0334 1.32493,-0.6655 1.49235,-0.726 2.00743,-0.7265 0.71714,-7e-4 1.31064,0.3281 2.19635,1.2166 0.55353,0.5552 0.62712,0.6507 0.57569,0.7468 -0.12535,0.2342 -1.06086,1.1241 -1.43851,1.3684 -0.70681,0.4572 -1.23642,0.5703 -1.87958,0.4013 z"
       style="opacity:1;fill:#000000;fill-opacity:0.30128204;stroke:none;stroke-width:0.2;stroke-linecap:round;stroke-miterlimit:4;stroke-dasharray:none;stroke-dashoffset:0;stroke-opacity:1" />
    <path
       id="path34134"
       style="fill:none;fill-opacity:1;fill-rule:nonzero;stroke:none;stroke-width:0.2;stroke-miterlimit:4;stroke-dasharray:none;stroke-opacity:1"
       d="m 106.97673,1029.3967 c -1.3125,1.9862 -4.09,0.4475 -6.54125,-1.1788 1.63,2.4475 3.17125,5.2263 1.17625,6.54 -1.08,0.715 -1.55,1.4113 -1.613753,2.0525 -0.0663,-0.6412 -0.5325,-1.3375 -1.6125,-2.055 -1.99125,-1.3112 -0.4525,-4.0887 1.17375,-6.5362 -2.4475,1.6262 -5.22625,3.1687 -6.53875,1.1687 -0.715,-1.075 -1.415,-1.545 -2.05375,-1.6112 0.63875,-0.067 1.33875,-0.5313 2.05375,-1.6125 1.3125,-1.99 4.09125,-0.4488 6.53875,1.175 -1.62625,-2.4525 -3.165,-5.2263 -1.17375,-6.5363 1.08,-0.7175 1.54625,-1.4137 1.6125,-2.0575 0.0687,0.6438 0.530003,1.34 1.613753,2.0575 1.995,1.31 0.45375,4.0838 -1.1675,6.5313 2.4425,-1.6225 5.22,-3.16 6.53625,-1.17 0.71625,1.0787 1.41,1.545 2.05,1.6125 -0.64,0.07 -1.33375,0.5362 -2.05375,1.62" />
    <path
       id="path34136"
       style="fill:none;fill-opacity:1;fill-rule:nonzero;stroke:none;stroke-width:0.2;stroke-miterlimit:4;stroke-dasharray:none;stroke-opacity:1"
       d="m 196.50173,1029.8154 c 1.44125,-0.1462 2.775,-2.03 2.77875,-2.0362 -0.009,0 -1.3375,-1.8875 -2.77875,-2.0388 -1.54,-0.1462 -2.6875,1.5438 -5.78625,2.0388 3.09875,0.495 4.24625,2.1875 5.78625,2.0362" />
    <path
       id="path34138"
       style="fill:none;fill-opacity:1;fill-rule:nonzero;stroke:none;stroke-width:0.2;stroke-miterlimit:4;stroke-dasharray:none;stroke-opacity:1"
       d="m 183.95673,1027.7792 c 4.26,-0.425 7.94,-3.2788 9.955,-5.9875 -0.42875,1.5075 -2.715,5.0775 -4.595,5.9875 1.88,0.91 4.16625,4.4825 4.595,5.985 -2.02,-2.7113 -5.69875,-5.5575 -9.955,-5.985" />
    <path
       id="path34140"
       style="fill:none;fill-opacity:1;fill-rule:nonzero;stroke:none;stroke-width:0.2;stroke-miterlimit:4;stroke-dasharray:none;stroke-opacity:1"
       d="m 184.39673,1027.7767 c 0,-1.2125 -0.5025,-1.6588 -1.00375,-1.6588 -0.495,0 -1.00375,0.4463 -1.00375,1.6588 0,1.22 0.50875,1.665 1.00375,1.665 0.50125,0 1.00375,-0.445 1.00375,-1.665" />
    <path
       id="path34142"
       style="fill:none;fill-opacity:1;fill-rule:nonzero;stroke:none;stroke-width:0.2;stroke-miterlimit:4;stroke-dasharray:none;stroke-opacity:1"
       d="m 178.06673,1027.7767 c 0,-1.2125 -0.50375,-1.6588 -1.00375,-1.6588 -0.5,0 -1.00375,0.4463 -1.00375,1.6588 0,1.22 0.50375,1.665 1.00375,1.665 0.5,0 1.00375,-0.445 1.00375,-1.665" />
    <path
       id="path34144"
       style="fill:none;fill-opacity:1;fill-rule:nonzero;stroke:none;stroke-width:0.2;stroke-miterlimit:4;stroke-dasharray:none;stroke-opacity:1"
       d="m 181.34298,1027.7767 c 0,-1.7738 -0.4775,-2.4213 -1.11625,-2.4213 -0.64,0 -1.11,0.6475 -1.11,2.4213 0,1.775 0.47,2.4262 1.11,2.4262 0.63875,0 1.11625,-0.6512 1.11625,-2.4262" />
    <path
       id="path34146"
       style="fill:none;fill-opacity:1;fill-rule:nonzero;stroke:none;stroke-width:0.2;stroke-miterlimit:4;stroke-dasharray:none;stroke-opacity:1"
       d="m 109.62298,1025.7354 c 0.49625,-0.45 1.1475,-0.7387 1.86875,-0.7387 0.95125,0 1.6,0.5175 2.09875,0.7837 1.58,0.8275 3.07,1.4839 19.07625,1.48 l 8.32188,0 7.53918,0 6.50019,0 c 10.285,0 16.09875,-0.2112 18.13125,-1.7637 0.86375,1.23 2.9,2.28 2.9,2.28 0,0 -2.03625,1.0525 -2.9,2.285" />
    <path
       id="path34148"
       style="fill:none;fill-opacity:1;fill-rule:nonzero;stroke:none;stroke-width:0.2;stroke-miterlimit:4;stroke-dasharray:none;stroke-opacity:1"
       d="m 173.15923,1030.0617 c -2.0325,-1.5538 -7.84625,-1.7663 -18.13125,-1.7663 l -6.50019,0 -7.53918,10e-5 -8.32188,0 c -16.00625,0 -17.49625,0.6525 -19.07625,1.4825 -0.49875,0.2625 -1.1475,0.7787 -2.09875,0.7787 -0.72125,0 -1.3725,-0.2837 -1.86875,-0.7337 l 2.045,-2.0463 -2.045,-2.0412" />
    <path
       id="path34150"
       style="fill:none;fill-opacity:1;fill-rule:nonzero;stroke:none;stroke-width:0.2;stroke-miterlimit:4;stroke-dasharray:none;stroke-opacity:1"
       d="m 179.11673,1027.7767 c 0,-0.2875 -0.23625,-0.525 -0.525,-0.525 -0.2925,0 -0.525,0.2375 -0.525,0.525 0,0.2912 0.2325,0.5275 0.525,0.5275 0.28875,0 0.525,-0.2363 0.525,-0.5275" />
    <path
       id="path34152"
       style="fill:none;fill-opacity:1;fill-rule:nonzero;stroke:none;stroke-width:0.2;stroke-miterlimit:4;stroke-dasharray:none;stroke-opacity:1"
       d="m 182.38923,1027.7767 c 0,-0.2875 -0.2325,-0.525 -0.525,-0.525 -0.2875,0 -0.52125,0.2375 -0.52125,0.525 0,0.2912 0.23375,0.5275 0.52125,0.5275 0.2925,0 0.525,-0.2363 0.525,-0.5275" />
    <path
       id="path34154"
       style="fill:none;fill-opacity:1;fill-rule:nonzero;stroke:none;stroke-width:0.2;stroke-miterlimit:4;stroke-dasharray:none;stroke-opacity:1"
       d="m 3.4942267,1029.8154 c -1.43875,-0.1462 -2.773753,-2.03 -2.777503,-2.0362 0.009,0 1.338753,-1.8875 2.777503,-2.0388 1.5375,-0.1462 2.69,1.5438 5.78875,2.0388 -3.09875,0.495 -4.25125,2.1875 -5.78875,2.0362" />
    <path
       id="path34156"
       style="fill:none;fill-opacity:1;fill-rule:nonzero;stroke:none;stroke-width:0.2;stroke-miterlimit:4;stroke-dasharray:none;stroke-opacity:1"
       d="m 16.036727,1027.7792 c -4.26,-0.425 -7.9350003,-3.2788 -9.9512503,-5.9875 0.4275,1.5075 2.715,5.0775 4.5950003,5.9875 -1.8800003,0.91 -4.1675003,4.4825 -4.5950003,5.985 2.02125,-2.7113 5.7000003,-5.5575 9.9512503,-5.985" />
    <path
       id="path34158"
       style="fill:none;fill-opacity:1;fill-rule:nonzero;stroke:none;stroke-width:0.2;stroke-miterlimit:4;stroke-dasharray:none;stroke-opacity:1"
       d="m 15.600477,1027.7767 c 0,-1.2125 0.50375,-1.6588 1.0025,-1.6588 0.50125,0 1.00375,0.4463 1.00375,1.6588 0,1.22 -0.5025,1.665 -1.00375,1.665 -0.49875,0 -1.0025,-0.445 -1.0025,-1.665" />
    <path
       id="path34160"
       style="fill:none;fill-opacity:1;fill-rule:nonzero;stroke:none;stroke-width:0.2;stroke-miterlimit:4;stroke-dasharray:none;stroke-opacity:1"
       d="m 21.930477,1027.7767 c 0,-1.2125 0.5075,-1.6588 1.00375,-1.6588 0.49875,0 1.00375,0.4463 1.00375,1.6588 0,1.22 -0.505,1.665 -1.00375,1.665 -0.49625,0 -1.00375,-0.445 -1.00375,-1.665" />
    <path
       id="path34162"
       style="fill:none;fill-opacity:1;fill-rule:nonzero;stroke:none;stroke-width:0.2;stroke-miterlimit:4;stroke-dasharray:none;stroke-opacity:1"
       d="m 18.657977,1027.7767 c 0,-1.7738 0.47375,-2.4213 1.11375,-2.4213 0.63875,0 1.1125,0.6475 1.1125,2.4213 0,1.775 -0.47375,2.4262 -1.1125,2.4262 -0.64,0 -1.11375,-0.6512 -1.11375,-2.4262" />
    <path
       id="path34164"
       style="fill:none;fill-opacity:1;fill-rule:nonzero;stroke:none;stroke-width:0.2;stroke-miterlimit:4;stroke-dasharray:none;stroke-opacity:1"
       d="m 90.369227,1025.7354 c -0.49,-0.45 -1.1425,-0.7387 -1.8625,-0.7387 -0.9525,0 -1.6,0.5175 -2.1,0.7837 -1.57875,0.8275 -3.07,1.4839 -19.075,1.48 l -8.32325,0 -7.543,0 -6.5,0 c -10.28125,0 -16.09875,-0.2113 -18.13125,-1.7638 -0.85875,1.23 -2.89625,2.28 -2.89625,2.28 0,0 2.0375,1.0525 2.89625,2.285" />
    <path
       id="path34166"
       style="fill:none;fill-opacity:1;fill-rule:nonzero;stroke:none;stroke-width:0.2;stroke-miterlimit:4;stroke-dasharray:none;stroke-opacity:1"
       d="m 26.834227,1030.0617 c 2.0325,-1.5538 7.85,-1.7663 18.13125,-1.7663 l 6.5,0 7.543,0 8.32325,0 c 16.005,0 17.49625,0.6525 19.075,1.4825 0.5,0.2625 1.1475,0.7788 2.1,0.7788 0.72,0 1.3725,-0.2838 1.8625,-0.7338 l -2.04125,-2.0462 2.04125,-2.0413" />
    <path
       id="path34168"
       style="fill:none;fill-opacity:1;fill-rule:nonzero;stroke:none;stroke-width:0.2;stroke-miterlimit:4;stroke-dasharray:none;stroke-opacity:1"
       d="m 17.606727,1027.7767 c 0,-0.2875 0.23375,-0.525 0.52625,-0.525 0.2875,0 0.525,0.2375 0.525,0.525 0,0.2912 -0.2375,0.5275 -0.525,0.5275 -0.2925,0 -0.52625,-0.2363 -0.52625,-0.5275" />
    <path
       style="opacity:1;fill:none;fill-opacity:1;stroke:none;stroke-width:0.2;stroke-miterlimit:4;stroke-dasharray:none;stroke-opacity:1"
       d="m 3.0514467,1029.6665 c -0.8931,-0.3339 -2.259863,-1.6001 -2.138833,-1.9815 0.0997,-0.3141 1.280783,-1.3902 1.814943,-1.6536 0.81484,-0.4018 1.39384,-0.3002 3.08572,0.5414 0.82694,0.4113 1.81916,0.8381 2.20492,0.9484 0.38576,0.1103 0.70138,0.2259 0.70138,0.2567 0,0.031 -0.31562,0.1467 -0.70138,0.2573 -0.38576,0.1106 -1.35803,0.5275 -2.16059,0.9265 -1.53358,0.7623 -2.20274,0.9304 -2.80616,0.7048 z"
       id="path34170" />
    <path
       style="opacity:1;fill:none;fill-opacity:1;stroke:none;stroke-width:0.2;stroke-miterlimit:4;stroke-dasharray:none;stroke-opacity:1"
       d="m 6.3642967,1033.1768 c 0.004,-0.1596 0.96191,-1.8124 1.43802,-2.4805 0.68698,-0.964 2.04406,-2.3758 2.5410403,-2.6434 0.21833,-0.1176 0.39697,-0.2413 0.39697,-0.275 0,-0.034 -0.17864,-0.1574 -0.39697,-0.275 -0.4969803,-0.2676 -1.8540603,-1.6794 -2.5410403,-2.6434 -0.46651,-0.6546 -1.43401,-2.3194 -1.43802,-2.4743 -8.7e-4,-0.034 0.56667,0.498 1.26119,1.1813 0.69453,0.6833 1.69645,1.5307 2.2265,1.8831 1.3305203,0.8847 3.1041303,1.7083 4.3384503,2.0148 0.57025,0.1416 1.03747,0.2888 1.03828,0.3272 8.1e-4,0.038 -0.19301,0.101 -0.43069,0.139 -1.34288,0.2147 -3.9148,1.3944 -5.3485403,2.4533 -0.43214,0.3192 -1.30346,1.0933 -1.93624,1.7202 -0.63279,0.627 -1.14982,1.1097 -1.14895,1.0727 z"
       id="path34172" />
    <path
       style="opacity:1;fill:none;fill-opacity:1;stroke:none;stroke-width:0.2;stroke-miterlimit:4;stroke-dasharray:none;stroke-opacity:1"
       d="m 3.0514467,1029.6665 c -0.8931,-0.3339 -2.259863,-1.6001 -2.138833,-1.9815 0.0997,-0.3141 1.280783,-1.3902 1.814943,-1.6536 0.81484,-0.4018 1.39384,-0.3002 3.08572,0.5414 0.82694,0.4113 1.81916,0.8381 2.20492,0.9484 0.38576,0.1103 0.70138,0.2259 0.70138,0.2567 0,0.031 -0.31562,0.1467 -0.70138,0.2573 -0.38576,0.1106 -1.35803,0.5275 -2.16059,0.9265 -1.53358,0.7623 -2.20274,0.9304 -2.80616,0.7048 z"
       id="path34174" />
    <path
       id="path34176"
       style="fill:none;fill-opacity:1;fill-rule:nonzero;stroke:none;stroke-width:0.2;stroke-miterlimit:4;stroke-dasharray:none;stroke-opacity:1"
       d="m 21.979497,1027.7569 c 0,-0.2875 -0.23625,-0.525 -0.525,-0.525 -0.2925,0 -0.525,0.2375 -0.525,0.525 0,0.2913 0.2325,0.5275 0.525,0.5275 0.28875,0 0.525,-0.2362 0.525,-0.5275" />
    <path
       style="opacity:1;fill:#000000;fill-opacity:0.30128204;stroke:none;stroke-width:0.2;stroke-linecap:round;stroke-miterlimit:4;stroke-dasharray:none;stroke-dashoffset:0;stroke-opacity:1"
       d="m 3.2742767,1029.5945 c -0.73648,-0.1806 -2.218983,-1.4276 -2.219963,-1.8674 -2.6e-4,-0.1157 0.701233,-0.8307 1.165643,-1.1881 0.72596,-0.5586 1.23955,-0.6967 1.92552,-0.5177 0.34537,0.09 0.69594,0.2411 2.35866,1.0157 0.3853,0.1796 0.96333,0.4189 1.2845,0.5319 l 0.58395,0.2055 -0.51791,0.1809 c -0.28485,0.1 -0.87553,0.3463 -1.31261,0.5486 -1.74814,0.809 -2.03983,0.9326 -2.4439,1.036 -0.44475,0.1137 -0.55346,0.1209 -0.82389,0.055 z"
       id="path34178" />
    <path
       style="opacity:1;fill:#000000;fill-opacity:0.30128204;stroke:none;stroke-width:0.2;stroke-linecap:round;stroke-miterlimit:4;stroke-dasharray:none;stroke-dashoffset:0;stroke-opacity:1"
       d="m 6.8626867,1032.4915 c 0.0702,-0.1882 0.75348,-1.294 1.08903,-1.7624 0.68861,-0.9613 1.81231,-2.1345 2.4201703,-2.5267 0.17693,-0.1142 0.37703,-0.256 0.44469,-0.3152 l 0.123,-0.1077 -0.15111,-0.1257 c -0.0831,-0.069 -0.26492,-0.1963 -0.40403,-0.2827 -0.5721903,-0.3554 -2.0126803,-1.9014 -2.6290903,-2.8217 -0.33832,-0.5051 -0.91194,-1.4567 -0.91194,-1.5128 0,-0.017 0.32248,0.2726 0.71663,0.6439 1.01343,0.9545 1.88925,1.6693 2.5528103,2.0834 1.26929,0.7923 2.86706,1.5068 4.10532,1.836 0.33101,0.088 0.59498,0.1668 0.58661,0.1752 -0.008,0.01 -0.2539,0.077 -0.54563,0.1532 -1.27875,0.3326 -3.15115,1.1962 -4.4340503,2.0452 -0.61906,0.4097 -1.29093,0.9766 -2.23636,1.8872 -0.42121,0.4056 -0.74793,0.6895 -0.72605,0.6308 z"
       id="path34180" />
    <path
       style="opacity:1;fill:#000000;fill-opacity:0.30128204;stroke:none;stroke-width:0.2;stroke-linecap:round;stroke-miterlimit:4;stroke-dasharray:none;stroke-dashoffset:0;stroke-opacity:1"
       d="m 16.240207,1029.1993 c -0.23101,-0.1449 -0.44642,-0.5959 -0.47058,-0.9852 -0.0168,-0.2711 -0.0119,-0.2817 0.1405,-0.2991 0.12595,-0.014 0.15442,-0.043 0.14052,-0.1406 -0.0125,-0.088 -0.0631,-0.1276 -0.17774,-0.1407 -0.15645,-0.018 -0.15939,-0.024 -0.12232,-0.2717 0.12911,-0.8609 0.58248,-1.2769 1.12845,-1.0354 0.19353,0.086 0.26467,0.1632 0.39753,0.4338 0.15099,0.3075 0.16182,0.3747 0.16182,1.004 0,0.7627 -0.0856,1.081 -0.36207,1.3459 -0.22206,0.2127 -0.57842,0.2507 -0.83611,0.089 z"
       id="path34182" />
    <path
       style="opacity:1;fill:#000000;fill-opacity:0.30128204;stroke:none;stroke-width:0.2;stroke-linecap:round;stroke-miterlimit:4;stroke-dasharray:none;stroke-dashoffset:0;stroke-opacity:1"
       d="m 17.895627,1028.0695 c -0.28467,-0.2239 -0.12273,-0.6704 0.24316,-0.6704 0.19826,0 0.39563,0.1888 0.39563,0.3785 0,0.1594 -0.23373,0.4084 -0.38331,0.4084 -0.0591,0 -0.17403,-0.052 -0.25548,-0.1165 z"
       id="path34184" />
    <path
       style="opacity:1;fill:#000000;fill-opacity:0.30128204;stroke:none;stroke-width:0.2;stroke-linecap:round;stroke-miterlimit:4;stroke-dasharray:none;stroke-dashoffset:0;stroke-opacity:1"
       d="m 19.491057,1030.0009 c -0.39316,-0.2022 -0.59449,-0.6942 -0.67433,-1.6482 -0.0519,-0.6203 0.002,-1.5583 0.11389,-1.9783 0.19947,-0.7493 0.71456,-1.0775 1.2104,-0.771 0.23092,0.1427 0.44352,0.5674 0.53309,1.065 0.0971,0.5391 0.0808,1.8578 -0.0288,2.3326 -0.19911,0.8627 -0.65424,1.2569 -1.15426,0.9999 z"
       id="path34186" />
    <path
       style="opacity:1;fill:#000000;fill-opacity:0.30128204;stroke:none;stroke-width:0.2;stroke-linecap:round;stroke-miterlimit:4;stroke-dasharray:none;stroke-dashoffset:0;stroke-opacity:1"
       d="m 21.151227,1028.0049 c -0.12586,-0.1797 -0.10795,-0.3656 0.0505,-0.524 0.15951,-0.1595 0.29176,-0.1738 0.46781,-0.05 0.1694,0.1186 0.18039,0.5533 0.0162,0.6412 -0.18837,0.1008 -0.43904,0.069 -0.53447,-0.067 z"
       id="path34188" />
    <path
       style="opacity:1;fill:#000000;fill-opacity:0.30128204;stroke:none;stroke-width:0.2;stroke-linecap:round;stroke-miterlimit:4;stroke-dasharray:none;stroke-dashoffset:0;stroke-opacity:1"
       d="m 22.661037,1029.2557 c -0.1869,-0.076 -0.40736,-0.3775 -0.49762,-0.6815 -0.11426,-0.3847 -0.11009,-1.2357 0.008,-1.6192 0.21331,-0.693 0.83362,-0.9223 1.26812,-0.4688 0.24412,0.2548 0.47555,1.1272 0.32389,1.221 -0.0469,0.029 -0.0466,0.059 0.001,0.1168 0.0911,0.1098 0.017,0.6049 -0.14447,0.9647 -0.19569,0.4361 -0.57668,0.6216 -0.95892,0.467 z"
       id="path34190" />
    <path
       style="opacity:1;fill:#000000;fill-opacity:0.30128204;stroke:none;stroke-width:0.2;stroke-linecap:round;stroke-miterlimit:4;stroke-dasharray:none;stroke-dashoffset:0;stroke-opacity:1"
       d="m 87.893617,1030.3455 c -0.32343,-0.085 -0.54363,-0.1884 -1.51758,-0.7116 -0.3246,-0.1744 -0.79252,-0.3829 -1.03983,-0.4633 -1.37883,-0.4485 -3.50934,-0.6835 -7.98136,-0.8805 -2.06495,-0.091 -36.35367,-0.1355 -39.54149,-0.051 -5.92279,0.1563 -8.7425,0.5204 -10.40953,1.3441 l -0.54523,0.2695 -0.41028,-0.416 c -0.46512,-0.4716 -1.0949,-0.9607 -1.77057,-1.3751 l -0.46096,-0.2828 0.50217,-0.3161 c 0.79525,-0.5007 1.17058,-0.7885 1.68239,-1.2897 l 0.4775,-0.4677 0.42269,0.2222 c 1.5068,0.7918 3.98181,1.1515 9.44389,1.3722 2.52942,0.1023 36.30639,0.1026 39.37287,4e-4 5.63021,-0.1876 8.01304,-0.4436 9.51033,-1.0221 0.24105,-0.093 0.7165,-0.3252 1.05655,-0.5158 0.85826,-0.4811 1.23702,-0.6084 1.81444,-0.6099 0.53941,0 1.00219,0.1314 1.42649,0.4091 l 0.27241,0.1784 -1.02541,1.0265 -1.0254,1.0265 1.01115,1.0146 c 1.13746,1.1413 1.09329,1.029 0.52027,1.323 -0.57493,0.295 -1.19781,0.3701 -1.78551,0.2154 l 0,0 z"
       id="path34192" />
    <path
       style="opacity:1;fill:#000000;fill-opacity:0.30128204;stroke:none;stroke-width:0.2;stroke-linecap:round;stroke-miterlimit:4;stroke-dasharray:none;stroke-dashoffset:0;stroke-opacity:1"
       d="m 99.836657,1035.9844 c -0.22925,-0.3851 -0.69228,-0.8457 -1.26781,-1.2611 -0.77412,-0.5588 -0.97801,-0.9335 -0.97282,-1.7878 0.003,-0.4949 0.0284,-0.636 0.21216,-1.1804 0.24192,-0.7165 0.78552,-1.7859 1.40761,-2.7692 0.40156,-0.6347 0.48225,-0.8561 0.31201,-0.8561 -0.0332,0 -0.33118,0.1725 -0.66219,0.3834 -2.16473,1.379 -3.67789,1.9034 -4.65512,1.6132 -0.44925,-0.1334 -0.77716,-0.3899 -1.14008,-0.8918 -0.43644,-0.6036 -0.81871,-0.9952 -1.23216,-1.2625 l -0.33757,-0.2181 0.23397,-0.1139 c 0.3447,-0.1677 0.77365,-0.578 1.21212,-1.1595 0.68249,-0.9051 0.92684,-1.0576 1.75197,-1.0937 0.4306,-0.019 0.62706,8e-4 0.98362,0.098 0.85866,0.2349 2.02268,0.8093 3.2829,1.6202 0.39474,0.254 0.55088,0.3272 0.60397,0.2831 0.0394,-0.033 0.0716,-0.078 0.0716,-0.1011 0,-0.023 -0.21206,-0.3803 -0.47123,-0.7941 -1.06265,-1.6966 -1.60843,-3.0362 -1.60843,-3.9478 0,-0.3593 0.19307,-0.9295 0.39897,-1.1784 0.0976,-0.118 0.40932,-0.388 0.69269,-0.6001 0.58828,-0.4402 0.95511,-0.8119 1.18008,-1.1958 l 0.15612,-0.2664 0.212483,0.3234 c 0.25699,0.3912 0.66928,0.7925 1.24929,1.2162 0.48029,0.3507 0.65627,0.553 0.8396,0.9652 0.17836,0.4009 0.16577,1.1135 -0.0317,1.7955 -0.18821,0.6499 -0.85266,1.9876 -1.45722,2.9336 -0.43247,0.6768 -0.46583,0.7488 -0.38167,0.8238 0.0823,0.073 0.13764,0.052 0.51378,-0.1942 1.26011,-0.8265 2.53133,-1.4638 3.34461,-1.6768 0.48266,-0.1264 1.21093,-0.1535 1.55535,-0.058 0.36927,0.1025 0.73254,0.4001 1.12983,0.9256 0.49486,0.6544 0.78152,0.9491 1.17391,1.2067 l 0.31837,0.209 -0.35645,0.2344 c -0.35074,0.2306 -0.76514,0.6634 -1.16465,1.2164 -0.46733,0.6469 -0.91357,0.9243 -1.56142,0.9706 -0.9482,0.068 -2.24858,-0.4387 -4.09586,-1.5955 -0.41379,-0.2591 -0.77112,-0.4711 -0.79407,-0.4711 -0.0229,0 -0.0675,0.032 -0.099,0.07 -0.0416,0.051 0.0876,0.3013 0.47127,0.9133 1.39277,2.2217 1.83207,3.6935 1.40646,4.7121 -0.11885,0.2845 -0.43747,0.6119 -1.02568,1.054 -0.56323,0.4233 -0.8459,0.7177 -1.08179,1.1265 l -0.15012,0.2602 -0.167713,-0.2817 z"
       id="path34194" />
    <path
       style="opacity:1;fill:#000000;fill-opacity:0.30128204;stroke:none;stroke-width:0.2;stroke-linecap:round;stroke-miterlimit:4;stroke-dasharray:none;stroke-dashoffset:0;stroke-opacity:1"
       d="m 110.826,1030.3323 c -0.36051,-0.094 -0.82008,-0.325 -0.9436,-0.4738 -0.0504,-0.061 0.14444,-0.2841 0.94596,-1.0847 l 1.00939,-1.0082 -1.01638,-1.0175 -1.01639,-1.0175 0.27617,-0.1772 c 0.43644,-0.2801 0.86294,-0.4026 1.4018,-0.4026 0.54321,0 0.92946,0.1106 1.48221,0.4243 1.44106,0.8178 2.2426,1.0675 4.21221,1.3121 3.45205,0.4289 7.69345,0.5095 26.81065,0.5095 15.88053,-10e-5 19.59224,-0.046 22.79186,-0.2814 2.98057,-0.2193 5.14751,-0.678 6.119,-1.2952 l 0.21729,-0.138 0.40099,0.4147 c 0.44813,0.4634 1.06859,0.946 1.76608,1.3738 0.52855,0.3242 0.53275,0.2859 -0.0723,0.6588 -0.6305,0.3886 -1.20433,0.8372 -1.67202,1.3071 l -0.43547,0.4375 -0.21714,-0.1437 c -0.29634,-0.1961 -1.0512,-0.4861 -1.72517,-0.6628 -1.4293,-0.3747 -3.28592,-0.5865 -6.82622,-0.7788 -1.64431,-0.089 -35.39084,-0.1323 -39.09183,-0.05 -6.07511,0.1354 -8.87512,0.3773 -10.49518,0.9068 -0.28483,0.093 -0.92535,0.3823 -1.42338,0.6428 -1.2583,0.6581 -1.69639,0.7535 -2.49849,0.5438 z"
       id="path34196" />
    <path
       style="opacity:1;fill:#000000;fill-opacity:0.30128204;stroke:none;stroke-width:0.2;stroke-linecap:round;stroke-miterlimit:4;stroke-dasharray:none;stroke-dashoffset:0;stroke-opacity:1"
       d="m 176.72259,1029.2033 c -0.24716,-0.1507 -0.41605,-0.4548 -0.48895,-0.8805 -0.0484,-0.2823 -0.0471,-0.3922 0.006,-0.4767 0.0503,-0.081 0.0513,-0.1098 0.004,-0.1098 -0.10976,0 -0.007,-0.6712 0.1531,-0.9986 0.38653,-0.791 1.2777,-0.5591 1.48021,0.3852 0.13423,0.6259 0.0277,1.5013 -0.22612,1.8577 -0.23028,0.3234 -0.61226,0.4151 -0.92779,0.2227 z"
       id="path34198" />
    <path
       style="opacity:1;fill:#000000;fill-opacity:0.30128204;stroke:none;stroke-width:0.2;stroke-linecap:round;stroke-miterlimit:4;stroke-dasharray:none;stroke-dashoffset:0;stroke-opacity:1"
       d="m 178.41469,1028.1188 c -0.15657,-0.089 -0.19488,-0.1591 -0.19587,-0.3597 -0.002,-0.3591 0.44514,-0.4972 0.67272,-0.2079 0.13998,0.178 0.11534,0.3847 -0.0639,0.5364 -0.1335,0.113 -0.25284,0.122 -0.41292,0.031 z"
       id="path34200" />
    <path
       style="opacity:1;fill:#000000;fill-opacity:0.30128204;stroke:none;stroke-width:0.2;stroke-linecap:round;stroke-miterlimit:4;stroke-dasharray:none;stroke-dashoffset:0;stroke-opacity:1"
       d="m 179.98569,1030.0202 c -0.0943,-0.042 -0.23909,-0.1573 -0.3218,-0.2556 -0.51629,-0.6136 -0.57282,-2.8941 -0.095,-3.8308 0.22406,-0.4392 0.7285,-0.5805 1.06409,-0.2981 0.39664,0.3337 0.56196,0.96 0.56196,2.1287 0,1.4412 -0.28813,2.2048 -0.86925,2.3039 -0.0927,0.016 -0.24576,-0.01 -0.34003,-0.048 z"
       id="path34202" />
    <path
       style="opacity:1;fill:#000000;fill-opacity:0.30128204;stroke:none;stroke-width:0.2;stroke-linecap:round;stroke-miterlimit:4;stroke-dasharray:none;stroke-dashoffset:0;stroke-opacity:1"
       d="m 181.62605,1028.0695 c -0.28466,-0.2239 -0.12272,-0.6704 0.24316,-0.6704 0.19826,0 0.39564,0.1888 0.39564,0.3785 0,0.1594 -0.23373,0.4084 -0.38331,0.4084 -0.0591,0 -0.17403,-0.052 -0.25549,-0.1165 z"
       id="path34204" />
    <path
       style="opacity:1;fill:#000000;fill-opacity:0.30128204;stroke:none;stroke-width:0.2;stroke-linecap:round;stroke-miterlimit:4;stroke-dasharray:none;stroke-dashoffset:0;stroke-opacity:1"
       d="m 182.99739,1029.1625 c -0.37371,-0.3144 -0.54421,-0.9935 -0.44628,-1.7775 0.0896,-0.717 0.39131,-1.1254 0.83161,-1.1254 0.47628,0 0.75586,0.3715 0.86823,1.1536 0.0291,0.2025 0.0239,0.2107 -0.13481,0.2107 -0.13862,0 -0.16508,0.023 -0.16508,0.1405 0,0.096 0.0311,0.1408 0.0984,0.1414 0.19738,0 0.22909,0.07 0.17927,0.3835 -0.13507,0.8513 -0.74409,1.2832 -1.2313,0.8732 z"
       id="path34206" />
    <path
       style="opacity:1;fill:#000000;fill-opacity:0.30128204;stroke:none;stroke-width:0.2;stroke-linecap:round;stroke-miterlimit:4;stroke-dasharray:none;stroke-dashoffset:0;stroke-opacity:1"
       d="m 192.58345,1032.0546 c -2.07644,-2.0859 -4.63997,-3.5766 -7.14101,-4.1525 l -0.56017,-0.129 0.38472,-0.078 c 1.06493,-0.2153 2.51791,-0.7672 3.60306,-1.3687 1.39563,-0.7737 2.4655,-1.5876 3.6947,-2.8109 0.45598,-0.4538 0.82905,-0.8089 0.82905,-0.789 0,0.078 -0.64363,1.1729 -1.01014,1.7191 -0.99499,1.483 -2.144,2.6848 -3.0305,3.1695 l -0.29191,0.1597 0.37549,0.2195 c 0.93198,0.5449 2.06489,1.7591 3.03996,3.2579 0.41797,0.6425 0.88917,1.4774 0.85329,1.5118 -0.0113,0.011 -0.34722,-0.3085 -0.74654,-0.7097 z"
       id="path34208" />
    <path
       style="opacity:1;fill:#000000;fill-opacity:0.30128204;stroke:none;stroke-width:0.2;stroke-linecap:round;stroke-miterlimit:4;stroke-dasharray:none;stroke-dashoffset:0;stroke-opacity:1"
       d="m 195.75449,1029.615 c -0.17003,-0.045 -0.85294,-0.3562 -1.51759,-0.6922 -1.17656,-0.5948 -1.81461,-0.8635 -2.49802,-1.0523 l -0.33407,-0.092 0.47287,-0.1365 c 0.70896,-0.2047 1.09052,-0.3679 2.41543,-1.0334 1.32493,-0.6655 1.49235,-0.726 2.00743,-0.7265 0.71714,-7e-4 1.31064,0.3281 2.19635,1.2166 0.55353,0.5552 0.62712,0.6507 0.57569,0.7468 -0.12535,0.2342 -1.06086,1.1241 -1.43851,1.3684 -0.70681,0.4572 -1.23642,0.5703 -1.87958,0.4013 z"
       id="path34210" />
    <path
       d="m 106.97673,1029.3967 c -1.3125,1.9862 -4.09,0.4475 -6.54125,-1.1788 1.63,2.4475 3.17125,5.2263 1.17625,6.54 -1.08,0.715 -1.55,1.4113 -1.613753,2.0525 -0.0663,-0.6412 -0.5325,-1.3375 -1.6125,-2.055 -1.99125,-1.3112 -0.4525,-4.0887 1.17375,-6.5362 -2.4475,1.6262 -5.22625,3.1687 -6.53875,1.1687 -0.715,-1.075 -1.415,-1.545 -2.05375,-1.6112 0.63875,-0.067 1.33875,-0.5313 2.05375,-1.6125 1.3125,-1.99 4.09125,-0.4488 6.53875,1.175 -1.62625,-2.4525 -3.165,-5.2263 -1.17375,-6.5363 1.08,-0.7175 1.54625,-1.4137 1.6125,-2.0575 0.0687,0.6438 0.530003,1.34 1.613753,2.0575 1.995,1.31 0.45375,4.0838 -1.1675,6.5313 2.4425,-1.6225 5.22,-3.16 6.53625,-1.17 0.71625,1.0787 1.41,1.545 2.05,1.6125 -0.64,0.07 -1.33375,0.5362 -2.05375,1.62"
       style="fill:none;fill-opacity:1;fill-rule:nonzero;stroke:none;stroke-width:0.2;stroke-miterlimit:4;stroke-dasharray:none;stroke-opacity:1"
       id="use34212" />
    <path
       d="m 196.50173,1029.8154 c 1.44125,-0.1462 2.775,-2.03 2.77875,-2.0362 -0.009,0 -1.3375,-1.8875 -2.77875,-2.0388 -1.54,-0.1462 -2.6875,1.5438 -5.78625,2.0388 3.09875,0.495 4.24625,2.1875 5.78625,2.0362"
       style="fill:none;fill-opacity:1;fill-rule:nonzero;stroke:none;stroke-width:0.2;stroke-miterlimit:4;stroke-dasharray:none;stroke-opacity:1"
       id="use34214" />
    <path
       d="m 183.95673,1027.7792 c 4.26,-0.425 7.94,-3.2788 9.955,-5.9875 -0.42875,1.5075 -2.715,5.0775 -4.595,5.9875 1.88,0.91 4.16625,4.4825 4.595,5.985 -2.02,-2.7113 -5.69875,-5.5575 -9.955,-5.985"
       style="fill:none;fill-opacity:1;fill-rule:nonzero;stroke:none;stroke-width:0.2;stroke-miterlimit:4;stroke-dasharray:none;stroke-opacity:1"
       id="use34216" />
    <path
       d="m 184.39673,1027.7767 c 0,-1.2125 -0.5025,-1.6588 -1.00375,-1.6588 -0.495,0 -1.00375,0.4463 -1.00375,1.6588 0,1.22 0.50875,1.665 1.00375,1.665 0.50125,0 1.00375,-0.445 1.00375,-1.665"
       style="fill:none;fill-opacity:1;fill-rule:nonzero;stroke:none;stroke-width:0.2;stroke-miterlimit:4;stroke-dasharray:none;stroke-opacity:1"
       id="use34218" />
    <path
       d="m 178.06673,1027.7767 c 0,-1.2125 -0.50375,-1.6588 -1.00375,-1.6588 -0.5,0 -1.00375,0.4463 -1.00375,1.6588 0,1.22 0.50375,1.665 1.00375,1.665 0.5,0 1.00375,-0.445 1.00375,-1.665"
       style="fill:none;fill-opacity:1;fill-rule:nonzero;stroke:none;stroke-width:0.2;stroke-miterlimit:4;stroke-dasharray:none;stroke-opacity:1"
       id="use34220" />
    <path
       d="m 181.34298,1027.7767 c 0,-1.7738 -0.4775,-2.4213 -1.11625,-2.4213 -0.64,0 -1.11,0.6475 -1.11,2.4213 0,1.775 0.47,2.4262 1.11,2.4262 0.63875,0 1.11625,-0.6512 1.11625,-2.4262"
       style="fill:none;fill-opacity:1;fill-rule:nonzero;stroke:none;stroke-width:0.2;stroke-miterlimit:4;stroke-dasharray:none;stroke-opacity:1"
       id="use34222" />
    <path
       d="m 109.62298,1025.7354 c 0.49625,-0.45 1.1475,-0.7387 1.86875,-0.7387 0.95125,0 1.6,0.5175 2.09875,0.7837 1.58,0.8275 3.07,1.4839 19.07625,1.48 l 8.32188,0 7.53918,0 6.50019,0 c 10.285,0 16.09875,-0.2112 18.13125,-1.7637 0.86375,1.23 2.9,2.28 2.9,2.28 0,0 -2.03625,1.0525 -2.9,2.285"
       style="fill:none;fill-opacity:1;fill-rule:nonzero;stroke:none;stroke-width:0.2;stroke-miterlimit:4;stroke-dasharray:none;stroke-opacity:1"
       id="use34224" />
    <path
       d="m 173.15923,1030.0617 c -2.0325,-1.5538 -7.84625,-1.7663 -18.13125,-1.7663 l -6.50019,0 -7.53918,10e-5 -8.32188,0 c -16.00625,0 -17.49625,0.6525 -19.07625,1.4825 -0.49875,0.2625 -1.1475,0.7787 -2.09875,0.7787 -0.72125,0 -1.3725,-0.2837 -1.86875,-0.7337 l 2.045,-2.0463 -2.045,-2.0412"
       style="fill:none;fill-opacity:1;fill-rule:nonzero;stroke:none;stroke-width:0.2;stroke-miterlimit:4;stroke-dasharray:none;stroke-opacity:1"
       id="use34226" />
    <path
       d="m 179.11673,1027.7767 c 0,-0.2875 -0.23625,-0.525 -0.525,-0.525 -0.2925,0 -0.525,0.2375 -0.525,0.525 0,0.2912 0.2325,0.5275 0.525,0.5275 0.28875,0 0.525,-0.2363 0.525,-0.5275"
       style="fill:none;fill-opacity:1;fill-rule:nonzero;stroke:none;stroke-width:0.2;stroke-miterlimit:4;stroke-dasharray:none;stroke-opacity:1"
       id="use34228" />
    <path
       d="m 182.38923,1027.7767 c 0,-0.2875 -0.2325,-0.525 -0.525,-0.525 -0.2875,0 -0.52125,0.2375 -0.52125,0.525 0,0.2912 0.23375,0.5275 0.52125,0.5275 0.2925,0 0.525,-0.2363 0.525,-0.5275"
       style="fill:none;fill-opacity:1;fill-rule:nonzero;stroke:none;stroke-width:0.2;stroke-miterlimit:4;stroke-dasharray:none;stroke-opacity:1"
       id="use34230" />
    <path
       d="m 3.4942267,1029.8154 c -1.43875,-0.1462 -2.773753,-2.03 -2.777503,-2.0362 0.009,0 1.338753,-1.8875 2.777503,-2.0388 1.5375,-0.1462 2.69,1.5438 5.78875,2.0388 -3.09875,0.495 -4.25125,2.1875 -5.78875,2.0362"
       style="fill:none;fill-opacity:1;fill-rule:nonzero;stroke:none;stroke-width:0.2;stroke-miterlimit:4;stroke-dasharray:none;stroke-opacity:1"
       id="use34232" />
    <path
       d="m 16.036727,1027.7792 c -4.26,-0.425 -7.9350003,-3.2788 -9.9512503,-5.9875 0.4275,1.5075 2.715,5.0775 4.5950003,5.9875 -1.8800003,0.91 -4.1675003,4.4825 -4.5950003,5.985 2.02125,-2.7113 5.7000003,-5.5575 9.9512503,-5.985"
       style="fill:none;fill-opacity:1;fill-rule:nonzero;stroke:none;stroke-width:0.2;stroke-miterlimit:4;stroke-dasharray:none;stroke-opacity:1"
       id="use34234" />
    <path
       d="m 15.600477,1027.7767 c 0,-1.2125 0.50375,-1.6588 1.0025,-1.6588 0.50125,0 1.00375,0.4463 1.00375,1.6588 0,1.22 -0.5025,1.665 -1.00375,1.665 -0.49875,0 -1.0025,-0.445 -1.0025,-1.665"
       style="fill:none;fill-opacity:1;fill-rule:nonzero;stroke:none;stroke-width:0.2;stroke-miterlimit:4;stroke-dasharray:none;stroke-opacity:1"
       id="use34236" />
    <path
       d="m 21.930477,1027.7767 c 0,-1.2125 0.5075,-1.6588 1.00375,-1.6588 0.49875,0 1.00375,0.4463 1.00375,1.6588 0,1.22 -0.505,1.665 -1.00375,1.665 -0.49625,0 -1.00375,-0.445 -1.00375,-1.665"
       style="fill:none;fill-opacity:1;fill-rule:nonzero;stroke:none;stroke-width:0.2;stroke-miterlimit:4;stroke-dasharray:none;stroke-opacity:1"
       id="use34238" />
    <path
       d="m 18.657977,1027.7767 c 0,-1.7738 0.47375,-2.4213 1.11375,-2.4213 0.63875,0 1.1125,0.6475 1.1125,2.4213 0,1.775 -0.47375,2.4262 -1.1125,2.4262 -0.64,0 -1.11375,-0.6512 -1.11375,-2.4262"
       style="fill:none;fill-opacity:1;fill-rule:nonzero;stroke:none;stroke-width:0.2;stroke-miterlimit:4;stroke-dasharray:none;stroke-opacity:1"
       id="use34240" />
    <path
       d="m 90.369227,1025.7354 c -0.49,-0.45 -1.1425,-0.7387 -1.8625,-0.7387 -0.9525,0 -1.6,0.5175 -2.1,0.7837 -1.57875,0.8275 -3.07,1.4839 -19.075,1.48 l -8.32325,0 -7.543,0 -6.5,0 c -10.28125,0 -16.09875,-0.2113 -18.13125,-1.7638 -0.85875,1.23 -2.89625,2.28 -2.89625,2.28 0,0 2.0375,1.0525 2.89625,2.285"
       style="fill:none;fill-opacity:1;fill-rule:nonzero;stroke:none;stroke-width:0.2;stroke-miterlimit:4;stroke-dasharray:none;stroke-opacity:1"
       id="use34242" />
    <path
       d="m 26.834227,1030.0617 c 2.0325,-1.5538 7.85,-1.7663 18.13125,-1.7663 l 6.5,0 7.543,0 8.32325,0 c 16.005,0 17.49625,0.6525 19.075,1.4825 0.5,0.2625 1.1475,0.7788 2.1,0.7788 0.72,0 1.3725,-0.2838 1.8625,-0.7338 l -2.04125,-2.0462 2.04125,-2.0413"
       style="fill:none;fill-opacity:1;fill-rule:nonzero;stroke:none;stroke-width:0.2;stroke-miterlimit:4;stroke-dasharray:none;stroke-opacity:1"
       id="use34244" />
    <path
       d="m 17.606727,1027.7767 c 0,-0.2875 0.23375,-0.525 0.52625,-0.525 0.2875,0 0.525,0.2375 0.525,0.525 0,0.2912 -0.2375,0.5275 -0.525,0.5275 -0.2925,0 -0.52625,-0.2363 -0.52625,-0.5275"
       style="fill:none;fill-opacity:1;fill-rule:nonzero;stroke:none;stroke-width:0.2;stroke-miterlimit:4;stroke-dasharray:none;stroke-opacity:1"
       id="use34246" />
    <path
       id="use34248"
       d="m 3.0514467,1029.6665 c -0.8931,-0.3339 -2.259863,-1.6001 -2.138833,-1.9815 0.0997,-0.3141 1.280783,-1.3902 1.814943,-1.6536 0.81484,-0.4018 1.39384,-0.3002 3.08572,0.5414 0.82694,0.4113 1.81916,0.8381 2.20492,0.9484 0.38576,0.1103 0.70138,0.2259 0.70138,0.2567 0,0.031 -0.31562,0.1467 -0.70138,0.2573 -0.38576,0.1106 -1.35803,0.5275 -2.16059,0.9265 -1.53358,0.7623 -2.20274,0.9304 -2.80616,0.7048 z"
       style="opacity:1;fill:none;fill-opacity:1;stroke:none;stroke-width:0.2;stroke-miterlimit:4;stroke-dasharray:none;stroke-opacity:1" />
    <path
       id="use34250"
       d="m 6.3642967,1033.1768 c 0.004,-0.1596 0.96191,-1.8124 1.43802,-2.4805 0.68698,-0.964 2.04406,-2.3758 2.5410403,-2.6434 0.21833,-0.1176 0.39697,-0.2413 0.39697,-0.275 0,-0.034 -0.17864,-0.1574 -0.39697,-0.275 -0.4969803,-0.2676 -1.8540603,-1.6794 -2.5410403,-2.6434 -0.46651,-0.6546 -1.43401,-2.3194 -1.43802,-2.4743 -8.7e-4,-0.034 0.56667,0.498 1.26119,1.1813 0.69453,0.6833 1.69645,1.5307 2.2265,1.8831 1.3305203,0.8847 3.1041303,1.7083 4.3384503,2.0148 0.57025,0.1416 1.03747,0.2888 1.03828,0.3272 8.1e-4,0.038 -0.19301,0.101 -0.43069,0.139 -1.34288,0.2147 -3.9148,1.3944 -5.3485403,2.4533 -0.43214,0.3192 -1.30346,1.0933 -1.93624,1.7202 -0.63279,0.627 -1.14982,1.1097 -1.14895,1.0727 z"
       style="opacity:1;fill:none;fill-opacity:1;stroke:none;stroke-width:0.2;stroke-miterlimit:4;stroke-dasharray:none;stroke-opacity:1" />
    <path
       id="use34252"
       d="m 3.0514467,1029.6665 c -0.8931,-0.3339 -2.259863,-1.6001 -2.138833,-1.9815 0.0997,-0.3141 1.280783,-1.3902 1.814943,-1.6536 0.81484,-0.4018 1.39384,-0.3002 3.08572,0.5414 0.82694,0.4113 1.81916,0.8381 2.20492,0.9484 0.38576,0.1103 0.70138,0.2259 0.70138,0.2567 0,0.031 -0.31562,0.1467 -0.70138,0.2573 -0.38576,0.1106 -1.35803,0.5275 -2.16059,0.9265 -1.53358,0.7623 -2.20274,0.9304 -2.80616,0.7048 z"
       style="opacity:1;fill:none;fill-opacity:1;stroke:none;stroke-width:0.2;stroke-miterlimit:4;stroke-dasharray:none;stroke-opacity:1" />
    <path
       d="m 21.979497,1027.7569 c 0,-0.2875 -0.23625,-0.525 -0.525,-0.525 -0.2925,0 -0.525,0.2375 -0.525,0.525 0,0.2913 0.2325,0.5275 0.525,0.5275 0.28875,0 0.525,-0.2362 0.525,-0.5275"
       style="fill:none;fill-opacity:1;fill-rule:nonzero;stroke:none;stroke-width:0.2;stroke-miterlimit:4;stroke-dasharray:none;stroke-opacity:1"
       id="use34254" />
    <path
       id="use34256"
       d="m 3.2742767,1029.5945 c -0.73648,-0.1806 -2.218983,-1.4276 -2.219963,-1.8674 -2.6e-4,-0.1157 0.701233,-0.8307 1.165643,-1.1881 0.72596,-0.5586 1.23955,-0.6967 1.92552,-0.5177 0.34537,0.09 0.69594,0.2411 2.35866,1.0157 0.3853,0.1796 0.96333,0.4189 1.2845,0.5319 l 0.58395,0.2055 -0.51791,0.1809 c -0.28485,0.1 -0.87553,0.3463 -1.31261,0.5486 -1.74814,0.809 -2.03983,0.9326 -2.4439,1.036 -0.44475,0.1137 -0.55346,0.1209 -0.82389,0.055 z"
       style="opacity:1;fill:#000000;fill-opacity:0.30128204;stroke:none;stroke-width:0.2;stroke-linecap:round;stroke-miterlimit:4;stroke-dasharray:none;stroke-dashoffset:0;stroke-opacity:1" />
    <path
       id="use34258"
       d="m 6.8626867,1032.4915 c 0.0702,-0.1882 0.75348,-1.294 1.08903,-1.7624 0.68861,-0.9613 1.81231,-2.1345 2.4201703,-2.5267 0.17693,-0.1142 0.37703,-0.256 0.44469,-0.3152 l 0.123,-0.1077 -0.15111,-0.1257 c -0.0831,-0.069 -0.26492,-0.1963 -0.40403,-0.2827 -0.5721903,-0.3554 -2.0126803,-1.9014 -2.6290903,-2.8217 -0.33832,-0.5051 -0.91194,-1.4567 -0.91194,-1.5128 0,-0.017 0.32248,0.2726 0.71663,0.6439 1.01343,0.9545 1.88925,1.6693 2.5528103,2.0834 1.26929,0.7923 2.86706,1.5068 4.10532,1.836 0.33101,0.088 0.59498,0.1668 0.58661,0.1752 -0.008,0.01 -0.2539,0.077 -0.54563,0.1532 -1.27875,0.3326 -3.15115,1.1962 -4.4340503,2.0452 -0.61906,0.4097 -1.29093,0.9766 -2.23636,1.8872 -0.42121,0.4056 -0.74793,0.6895 -0.72605,0.6308 z"
       style="opacity:1;fill:#000000;fill-opacity:0.30128204;stroke:none;stroke-width:0.2;stroke-linecap:round;stroke-miterlimit:4;stroke-dasharray:none;stroke-dashoffset:0;stroke-opacity:1" />
    <path
       id="use34260"
       d="m 16.240207,1029.1993 c -0.23101,-0.1449 -0.44642,-0.5959 -0.47058,-0.9852 -0.0168,-0.2711 -0.0119,-0.2817 0.1405,-0.2991 0.12595,-0.014 0.15442,-0.043 0.14052,-0.1406 -0.0125,-0.088 -0.0631,-0.1276 -0.17774,-0.1407 -0.15645,-0.018 -0.15939,-0.024 -0.12232,-0.2717 0.12911,-0.8609 0.58248,-1.2769 1.12845,-1.0354 0.19353,0.086 0.26467,0.1632 0.39753,0.4338 0.15099,0.3075 0.16182,0.3747 0.16182,1.004 0,0.7627 -0.0856,1.081 -0.36207,1.3459 -0.22206,0.2127 -0.57842,0.2507 -0.83611,0.089 z"
       style="opacity:1;fill:#000000;fill-opacity:0.30128204;stroke:none;stroke-width:0.2;stroke-linecap:round;stroke-miterlimit:4;stroke-dasharray:none;stroke-dashoffset:0;stroke-opacity:1" />
    <path
       id="use34262"
       d="m 17.895627,1028.0695 c -0.28467,-0.2239 -0.12273,-0.6704 0.24316,-0.6704 0.19826,0 0.39563,0.1888 0.39563,0.3785 0,0.1594 -0.23373,0.4084 -0.38331,0.4084 -0.0591,0 -0.17403,-0.052 -0.25548,-0.1165 z"
       style="opacity:1;fill:#000000;fill-opacity:0.30128204;stroke:none;stroke-width:0.2;stroke-linecap:round;stroke-miterlimit:4;stroke-dasharray:none;stroke-dashoffset:0;stroke-opacity:1" />
    <path
       id="use34264"
       d="m 19.491057,1030.0009 c -0.39316,-0.2022 -0.59449,-0.6942 -0.67433,-1.6482 -0.0519,-0.6203 0.002,-1.5583 0.11389,-1.9783 0.19947,-0.7493 0.71456,-1.0775 1.2104,-0.771 0.23092,0.1427 0.44352,0.5674 0.53309,1.065 0.0971,0.5391 0.0808,1.8578 -0.0288,2.3326 -0.19911,0.8627 -0.65424,1.2569 -1.15426,0.9999 z"
       style="opacity:1;fill:#000000;fill-opacity:0.30128204;stroke:none;stroke-width:0.2;stroke-linecap:round;stroke-miterlimit:4;stroke-dasharray:none;stroke-dashoffset:0;stroke-opacity:1" />
    <path
       id="use34266"
       d="m 21.151227,1028.0049 c -0.12586,-0.1797 -0.10795,-0.3656 0.0505,-0.524 0.15951,-0.1595 0.29176,-0.1738 0.46781,-0.05 0.1694,0.1186 0.18039,0.5533 0.0162,0.6412 -0.18837,0.1008 -0.43904,0.069 -0.53447,-0.067 z"
       style="opacity:1;fill:#000000;fill-opacity:0.30128204;stroke:none;stroke-width:0.2;stroke-linecap:round;stroke-miterlimit:4;stroke-dasharray:none;stroke-dashoffset:0;stroke-opacity:1" />
    <path
       id="use34268"
       d="m 22.661037,1029.2557 c -0.1869,-0.076 -0.40736,-0.3775 -0.49762,-0.6815 -0.11426,-0.3847 -0.11009,-1.2357 0.008,-1.6192 0.21331,-0.693 0.83362,-0.9223 1.26812,-0.4688 0.24412,0.2548 0.47555,1.1272 0.32389,1.221 -0.0469,0.029 -0.0466,0.059 0.001,0.1168 0.0911,0.1098 0.017,0.6049 -0.14447,0.9647 -0.19569,0.4361 -0.57668,0.6216 -0.95892,0.467 z"
       style="opacity:1;fill:#000000;fill-opacity:0.30128204;stroke:none;stroke-width:0.2;stroke-linecap:round;stroke-miterlimit:4;stroke-dasharray:none;stroke-dashoffset:0;stroke-opacity:1" />
    <path
       id="use34270"
       d="m 87.893617,1030.3455 c -0.32343,-0.085 -0.54363,-0.1884 -1.51758,-0.7116 -0.3246,-0.1744 -0.79252,-0.3829 -1.03983,-0.4633 -1.37883,-0.4485 -3.50934,-0.6835 -7.98136,-0.8805 -2.06495,-0.091 -36.35367,-0.1355 -39.54149,-0.051 -5.92279,0.1563 -8.7425,0.5204 -10.40953,1.3441 l -0.54523,0.2695 -0.41028,-0.416 c -0.46512,-0.4716 -1.0949,-0.9607 -1.77057,-1.3751 l -0.46096,-0.2828 0.50217,-0.3161 c 0.79525,-0.5007 1.17058,-0.7885 1.68239,-1.2897 l 0.4775,-0.4677 0.42269,0.2222 c 1.5068,0.7918 3.98181,1.1515 9.44389,1.3722 2.52942,0.1023 36.30639,0.1026 39.37287,4e-4 5.63021,-0.1876 8.01304,-0.4436 9.51033,-1.0221 0.24105,-0.093 0.7165,-0.3252 1.05655,-0.5158 0.85826,-0.4811 1.23702,-0.6084 1.81444,-0.6099 0.53941,0 1.00219,0.1314 1.42649,0.4091 l 0.27241,0.1784 -1.02541,1.0265 -1.0254,1.0265 1.01115,1.0146 c 1.13746,1.1413 1.09329,1.029 0.52027,1.323 -0.57493,0.295 -1.19781,0.3701 -1.78551,0.2154 l 0,0 z"
       style="opacity:1;fill:#000000;fill-opacity:0.30128204;stroke:none;stroke-width:0.2;stroke-linecap:round;stroke-miterlimit:4;stroke-dasharray:none;stroke-dashoffset:0;stroke-opacity:1" />
    <path
       id="use34272"
       d="m 99.836657,1035.9844 c -0.22925,-0.3851 -0.69228,-0.8457 -1.26781,-1.2611 -0.77412,-0.5588 -0.97801,-0.9335 -0.97282,-1.7878 0.003,-0.4949 0.0284,-0.636 0.21216,-1.1804 0.24192,-0.7165 0.78552,-1.7859 1.40761,-2.7692 0.40156,-0.6347 0.48225,-0.8561 0.31201,-0.8561 -0.0332,0 -0.33118,0.1725 -0.66219,0.3834 -2.16473,1.379 -3.67789,1.9034 -4.65512,1.6132 -0.44925,-0.1334 -0.77716,-0.3899 -1.14008,-0.8918 -0.43644,-0.6036 -0.81871,-0.9952 -1.23216,-1.2625 l -0.33757,-0.2181 0.23397,-0.1139 c 0.3447,-0.1677 0.77365,-0.578 1.21212,-1.1595 0.68249,-0.9051 0.92684,-1.0576 1.75197,-1.0937 0.4306,-0.019 0.62706,8e-4 0.98362,0.098 0.85866,0.2349 2.02268,0.8093 3.2829,1.6202 0.39474,0.254 0.55088,0.3272 0.60397,0.2831 0.0394,-0.033 0.0716,-0.078 0.0716,-0.1011 0,-0.023 -0.21206,-0.3803 -0.47123,-0.7941 -1.06265,-1.6966 -1.60843,-3.0362 -1.60843,-3.9478 0,-0.3593 0.19307,-0.9295 0.39897,-1.1784 0.0976,-0.118 0.40932,-0.388 0.69269,-0.6001 0.58828,-0.4402 0.95511,-0.8119 1.18008,-1.1958 l 0.15612,-0.2664 0.212483,0.3234 c 0.25699,0.3912 0.66928,0.7925 1.24929,1.2162 0.48029,0.3507 0.65627,0.553 0.8396,0.9652 0.17836,0.4009 0.16577,1.1135 -0.0317,1.7955 -0.18821,0.6499 -0.85266,1.9876 -1.45722,2.9336 -0.43247,0.6768 -0.46583,0.7488 -0.38167,0.8238 0.0823,0.073 0.13764,0.052 0.51378,-0.1942 1.26011,-0.8265 2.53133,-1.4638 3.34461,-1.6768 0.48266,-0.1264 1.21093,-0.1535 1.55535,-0.058 0.36927,0.1025 0.73254,0.4001 1.12983,0.9256 0.49486,0.6544 0.78152,0.9491 1.17391,1.2067 l 0.31837,0.209 -0.35645,0.2344 c -0.35074,0.2306 -0.76514,0.6634 -1.16465,1.2164 -0.46733,0.6469 -0.91357,0.9243 -1.56142,0.9706 -0.9482,0.068 -2.24858,-0.4387 -4.09586,-1.5955 -0.41379,-0.2591 -0.77112,-0.4711 -0.79407,-0.4711 -0.0229,0 -0.0675,0.032 -0.099,0.07 -0.0416,0.051 0.0876,0.3013 0.47127,0.9133 1.39277,2.2217 1.83207,3.6935 1.40646,4.7121 -0.11885,0.2845 -0.43747,0.6119 -1.02568,1.054 -0.56323,0.4233 -0.8459,0.7177 -1.08179,1.1265 l -0.15012,0.2602 -0.167713,-0.2817 z"
       style="opacity:1;fill:#000000;fill-opacity:0.30128204;stroke:none;stroke-width:0.2;stroke-linecap:round;stroke-miterlimit:4;stroke-dasharray:none;stroke-dashoffset:0;stroke-opacity:1" />
    <path
       id="use34274"
       d="m 110.826,1030.3323 c -0.36051,-0.094 -0.82008,-0.325 -0.9436,-0.4738 -0.0504,-0.061 0.14444,-0.2841 0.94596,-1.0847 l 1.00939,-1.0082 -1.01638,-1.0175 -1.01639,-1.0175 0.27617,-0.1772 c 0.43644,-0.2801 0.86294,-0.4026 1.4018,-0.4026 0.54321,0 0.92946,0.1106 1.48221,0.4243 1.44106,0.8178 2.2426,1.0675 4.21221,1.3121 3.45205,0.4289 7.69345,0.5095 26.81065,0.5095 15.88053,-10e-5 19.59224,-0.046 22.79186,-0.2814 2.98057,-0.2193 5.14751,-0.678 6.119,-1.2952 l 0.21729,-0.138 0.40099,0.4147 c 0.44813,0.4634 1.06859,0.946 1.76608,1.3738 0.52855,0.3242 0.53275,0.2859 -0.0723,0.6588 -0.6305,0.3886 -1.20433,0.8372 -1.67202,1.3071 l -0.43547,0.4375 -0.21714,-0.1437 c -0.29634,-0.1961 -1.0512,-0.4861 -1.72517,-0.6628 -1.4293,-0.3747 -3.28592,-0.5865 -6.82622,-0.7788 -1.64431,-0.089 -35.39084,-0.1323 -39.09183,-0.05 -6.07511,0.1354 -8.87512,0.3773 -10.49518,0.9068 -0.28483,0.093 -0.92535,0.3823 -1.42338,0.6428 -1.2583,0.6581 -1.69639,0.7535 -2.49849,0.5438 z"
       style="opacity:1;fill:#000000;fill-opacity:0.30128204;stroke:none;stroke-width:0.2;stroke-linecap:round;stroke-miterlimit:4;stroke-dasharray:none;stroke-dashoffset:0;stroke-opacity:1" />
    <path
       id="use34276"
       d="m 176.72259,1029.2033 c -0.24716,-0.1507 -0.41605,-0.4548 -0.48895,-0.8805 -0.0484,-0.2823 -0.0471,-0.3922 0.006,-0.4767 0.0503,-0.081 0.0513,-0.1098 0.004,-0.1098 -0.10976,0 -0.007,-0.6712 0.1531,-0.9986 0.38653,-0.791 1.2777,-0.5591 1.48021,0.3852 0.13423,0.6259 0.0277,1.5013 -0.22612,1.8577 -0.23028,0.3234 -0.61226,0.4151 -0.92779,0.2227 z"
       style="opacity:1;fill:#000000;fill-opacity:0.30128204;stroke:none;stroke-width:0.2;stroke-linecap:round;stroke-miterlimit:4;stroke-dasharray:none;stroke-dashoffset:0;stroke-opacity:1" />
    <path
       id="use34278"
       d="m 178.41469,1028.1188 c -0.15657,-0.089 -0.19488,-0.1591 -0.19587,-0.3597 -0.002,-0.3591 0.44514,-0.4972 0.67272,-0.2079 0.13998,0.178 0.11534,0.3847 -0.0639,0.5364 -0.1335,0.113 -0.25284,0.122 -0.41292,0.031 z"
       style="opacity:1;fill:#000000;fill-opacity:0.30128204;stroke:none;stroke-width:0.2;stroke-linecap:round;stroke-miterlimit:4;stroke-dasharray:none;stroke-dashoffset:0;stroke-opacity:1" />
    <path
       id="use34280"
       d="m 179.98569,1030.0202 c -0.0943,-0.042 -0.23909,-0.1573 -0.3218,-0.2556 -0.51629,-0.6136 -0.57282,-2.8941 -0.095,-3.8308 0.22406,-0.4392 0.7285,-0.5805 1.06409,-0.2981 0.39664,0.3337 0.56196,0.96 0.56196,2.1287 0,1.4412 -0.28813,2.2048 -0.86925,2.3039 -0.0927,0.016 -0.24576,-0.01 -0.34003,-0.048 z"
       style="opacity:1;fill:#000000;fill-opacity:0.30128204;stroke:none;stroke-width:0.2;stroke-linecap:round;stroke-miterlimit:4;stroke-dasharray:none;stroke-dashoffset:0;stroke-opacity:1" />
    <path
       id="use34282"
       d="m 181.62605,1028.0695 c -0.28466,-0.2239 -0.12272,-0.6704 0.24316,-0.6704 0.19826,0 0.39564,0.1888 0.39564,0.3785 0,0.1594 -0.23373,0.4084 -0.38331,0.4084 -0.0591,0 -0.17403,-0.052 -0.25549,-0.1165 z"
       style="opacity:1;fill:#000000;fill-opacity:0.30128204;stroke:none;stroke-width:0.2;stroke-linecap:round;stroke-miterlimit:4;stroke-dasharray:none;stroke-dashoffset:0;stroke-opacity:1" />
    <path
       id="use34284"
       d="m 182.99739,1029.1625 c -0.37371,-0.3144 -0.54421,-0.9935 -0.44628,-1.7775 0.0896,-0.717 0.39131,-1.1254 0.83161,-1.1254 0.47628,0 0.75586,0.3715 0.86823,1.1536 0.0291,0.2025 0.0239,0.2107 -0.13481,0.2107 -0.13862,0 -0.16508,0.023 -0.16508,0.1405 0,0.096 0.0311,0.1408 0.0984,0.1414 0.19738,0 0.22909,0.07 0.17927,0.3835 -0.13507,0.8513 -0.74409,1.2832 -1.2313,0.8732 z"
       style="opacity:1;fill:#000000;fill-opacity:0.30128204;stroke:none;stroke-width:0.2;stroke-linecap:round;stroke-miterlimit:4;stroke-dasharray:none;stroke-dashoffset:0;stroke-opacity:1" />
    <path
       id="use34286"
       d="m 192.58345,1032.0546 c -2.07644,-2.0859 -4.63997,-3.5766 -7.14101,-4.1525 l -0.56017,-0.129 0.38472,-0.078 c 1.06493,-0.2153 2.51791,-0.7672 3.60306,-1.3687 1.39563,-0.7737 2.4655,-1.5876 3.6947,-2.8109 0.45598,-0.4538 0.82905,-0.8089 0.82905,-0.789 0,0.078 -0.64363,1.1729 -1.01014,1.7191 -0.99499,1.483 -2.144,2.6848 -3.0305,3.1695 l -0.29191,0.1597 0.37549,0.2195 c 0.93198,0.5449 2.06489,1.7591 3.03996,3.2579 0.41797,0.6425 0.88917,1.4774 0.85329,1.5118 -0.0113,0.011 -0.34722,-0.3085 -0.74654,-0.7097 z"
       style="opacity:1;fill:#000000;fill-opacity:0.30128204;stroke:none;stroke-width:0.2;stroke-linecap:round;stroke-miterlimit:4;stroke-dasharray:none;stroke-dashoffset:0;stroke-opacity:1" />
    <path
       id="use34288"
       d="m 195.75449,1029.615 c -0.17003,-0.045 -0.85294,-0.3562 -1.51759,-0.6922 -1.17656,-0.5948 -1.81461,-0.8635 -2.49802,-1.0523 l -0.33407,-0.092 0.47287,-0.1365 c 0.70896,-0.2047 1.09052,-0.3679 2.41543,-1.0334 1.32493,-0.6655 1.49235,-0.726 2.00743,-0.7265 0.71714,-7e-4 1.31064,0.3281 2.19635,1.2166 0.55353,0.5552 0.62712,0.6507 0.57569,0.7468 -0.12535,0.2342 -1.06086,1.1241 -1.43851,1.3684 -0.70681,0.4572 -1.23642,0.5703 -1.87958,0.4013 z"
       style="opacity:1;fill:#000000;fill-opacity:0.30128204;stroke:none;stroke-width:0.2;stroke-linecap:round;stroke-miterlimit:4;stroke-dasharray:none;stroke-dashoffset:0;stroke-opacity:1" />
  </g>
</svg>
